<?xml version="1.0" encoding="utf-8"?>
<!-- Generator: Adobe Illustrator 17.0.0, SVG Export Plug-In . SVG Version: 6.00 Build 0)  -->
<!DOCTYPE svg PUBLIC "-//W3C//DTD SVG 1.1//EN" "http://www.w3.org/Graphics/SVG/1.1/DTD/svg11.dtd">
<svg version="1.1" id="Layer_1" xmlns="http://www.w3.org/2000/svg" xmlns:xlink="http://www.w3.org/1999/xlink" x="0px" y="0px"
	 width="64px" height="64px" viewBox="0 0 64 64" enable-background="new 0 0 64 64" xml:space="preserve">
<g>
	<path fill="#8E8DBE" d="M49.132,57.975c0,0,7.064-3.009,10.668-13.327c0.761-2.579,0.89-3.166,0.809-3.373
		c-0.081-0.207-0.484,1.005-0.484,1.005l-1.174,2.821l-1.2,2.255l-1.101,1.731l-1.249,1.694L54.1,52.315L53.3,53.161l-1.095,1.059
		l-1.432,1.275l-1.037,0.761l-0.938,0.665L49.132,57.975z"/>
	<path fill="none" stroke="#706DB2" stroke-width="1.5" stroke-miterlimit="10" d="M48.838,56.628
		c0.015,0.099,0.033,0.197,0.053,0.295c0.02,0.098,0.043,0.194,0.067,0.29s0.052,0.191,0.081,0.285
		c0.029,0.094,0.06,0.187,0.094,0.279c0.033,0.092,0.069,0.183,0.106,0.273c0.037,0.09,0.077,0.179,0.119,0.266
		c0.042,0.088,0.085,0.174,0.13,0.26c0.045,0.085,0.093,0.17,0.142,0.253s0.1,0.165,0.153,0.245c0.053,0.08,0.108,0.16,0.164,0.237
		s0.115,0.154,0.175,0.229s0.122,0.149,0.185,0.221c0.063,0.072,0.128,0.143,0.195,0.212c0.067,0.069,0.135,0.137,0.204,0.203
		c0.07,0.066,0.141,0.13,0.214,0.193s0.147,0.124,0.222,0.183s0.153,0.117,0.231,0.173c0.078,0.056,0.158,0.11,0.239,0.162
		c0.081,0.052,0.163,0.103,0.247,0.151s0.168,0.095,0.254,0.14c0.086,0.045,0.173,0.088,0.261,0.128
		c0.088,0.041,0.177,0.08,0.268,0.116s0.182,0.071,0.274,0.104c0.092,0.033,0.186,0.063,0.28,0.091
		c0.094,0.028,0.19,0.054,0.286,0.078s0.193,0.045,0.291,0.065c0.098,0.019,0.197,0.036,0.296,0.051
		c0.099,0.015,0.2,0.027,0.301,0.037s0.203,0.017,0.305,0.022c0.102,0.005,0.205,0.008,0.309,0.008s0.207-0.003,0.309-0.008
		c0.102-0.005,0.204-0.012,0.305-0.022c0.101-0.01,0.201-0.022,0.301-0.037c0.099-0.015,0.198-0.032,0.296-0.051
		c0.098-0.019,0.195-0.041,0.291-0.065c0.096-0.024,0.191-0.05,0.286-0.078c0.094-0.028,0.188-0.059,0.28-0.091
		c0.092-0.033,0.184-0.067,0.274-0.104s0.18-0.076,0.268-0.116s0.175-0.084,0.261-0.128c0.086-0.045,0.171-0.091,0.254-0.14
		c0.083-0.049,0.166-0.099,0.247-0.151c0.081-0.052,0.161-0.106,0.239-0.162c0.078-0.056,0.155-0.114,0.231-0.173
		s0.15-0.12,0.222-0.183c0.073-0.063,0.144-0.127,0.214-0.193c0.07-0.066,0.138-0.134,0.204-0.203
		c0.067-0.069,0.132-0.14,0.195-0.212c0.063-0.072,0.125-0.146,0.185-0.221s0.118-0.151,0.175-0.229s0.111-0.157,0.164-0.237
		c0.053-0.08,0.104-0.162,0.153-0.245s0.097-0.167,0.142-0.253c0.045-0.085,0.089-0.172,0.131-0.26
		c0.042-0.088,0.081-0.177,0.119-0.266c0.038-0.09,0.073-0.181,0.106-0.273c0.033-0.092,0.065-0.185,0.094-0.279
		c0.029-0.094,0.056-0.189,0.081-0.285s0.047-0.192,0.067-0.29c0.02-0.098,0.038-0.196,0.054-0.295
		c0.016-0.099,0.029-0.199,0.04-0.3c0.011-0.101,0.019-0.202,0.025-0.304c0-0.004,0-0.008,0.001-0.011c0-0.004,0-0.008,0.001-0.011
		c0-0.004,0-0.008,0.001-0.011c0-0.004,0-0.008,0.001-0.011s0-0.008,0.001-0.011c0-0.004,0-0.008,0-0.011s0-0.008,0-0.011
		s0-0.008,0-0.011c0-0.004,0-0.008,0-0.011c0-0.004,0-0.008,0-0.011s0-0.008,0-0.011s0-0.008,0-0.011c0-0.004,0-0.008,0-0.011
		s0-0.008,0-0.011c0-0.004,0-0.008,0-0.011c0-0.004,0-0.008,0-0.011c0-0.004,0-0.008,0-0.011c0-0.004,0-0.008,0-0.011
		c0-0.004,0-0.008,0-0.012s0-0.008,0-0.012c0-0.004,0-0.008,0-0.012c0-0.004,0-0.008,0-0.012s0-0.008,0-0.012
		c0-0.004,0-0.008,0-0.012c0-0.004,0-0.008,0-0.012c0-0.004,0-0.008,0-0.012c0-0.004,0-0.008,0-0.012c0-0.004,0-0.008,0-0.012
		c0-0.004,0-0.008,0-0.012c0-0.004,0-0.008,0-0.012c0-0.004,0-0.008,0-0.012s0-0.008,0-0.012"/>
	<polyline fill="none" stroke="#706DB2" stroke-width="1.5" stroke-miterlimit="10" points="61.181,38.162 61.185,41.55 
		61.19,44.372 61.194,47.193 61.198,50.014 61.202,52.836 61.206,55.856 	"/>
	<path fill="#8E8DBE" d="M15.222,35.761c0,0-0.231,12.062,8.532,24.761l-2.331-0.761l-1.358-1.832l-1.1-1.809l-0.926-2.01
		l-0.585-1.598l-0.513-1.7l-0.404-1.62l-0.276-1.304l-0.255-1.41l-0.269-1.803l-0.216-1.831l-0.138-1.503l-0.089-1.226l-0.121-2.496
		L15.222,35.761z"/>
	<path fill="none" stroke="#706DB2" stroke-width="1.5" stroke-miterlimit="10" d="M59.466,20.391
		c0.156,0.366,0.276,0.75,0.358,1.148c0.082,0.398,0.125,0.811,0.125,1.233s-0.043,0.835-0.125,1.233
		c-0.082,0.398-0.203,0.782-0.358,1.148s-0.346,0.714-0.567,1.039c-0.221,0.325-0.473,0.629-0.751,0.905
		c-0.278,0.277-0.583,0.527-0.91,0.747c-0.327,0.22-0.677,0.409-1.045,0.564c-0.368,0.155-0.754,0.275-1.154,0.356
		c-0.4,0.081-0.815,0.124-1.239,0.124s-0.839-0.043-1.239-0.124c-0.4-0.081-0.787-0.202-1.154-0.356
		c-0.368-0.155-0.718-0.344-1.045-0.564c-0.327-0.22-0.632-0.47-0.91-0.747c-0.278-0.277-0.53-0.58-0.751-0.905
		c-0.221-0.325-0.411-0.673-0.567-1.039"/>
	<path display="none" fill="none" stroke="#706DB2" stroke-width="4" stroke-miterlimit="10" d="M52.406,39.015
		c-3.986,5.499-8.592,10.526-13.719,14.973c-3.371,2.927-6.972,5.612-10.768,8.013"/>
	<path fill="none" stroke="#706DB2" stroke-width="1.5" stroke-miterlimit="10" d="M47.843,38.542
		c-0.057,0.126-0.115,0.251-0.175,0.375s-0.121,0.248-0.184,0.37c-0.063,0.123-0.127,0.244-0.193,0.365
		c-0.066,0.121-0.133,0.241-0.201,0.36c-0.068,0.119-0.138,0.237-0.21,0.355c-0.071,0.117-0.144,0.234-0.218,0.349
		c-0.074,0.115-0.149,0.23-0.226,0.343c-0.077,0.113-0.155,0.226-0.234,0.337s-0.16,0.222-0.242,0.332
		c-0.082,0.109-0.165,0.218-0.25,0.325s-0.17,0.214-0.257,0.319c-0.087,0.105-0.175,0.21-0.265,0.313
		c-0.089,0.103-0.18,0.205-0.272,0.306c-0.092,0.101-0.185,0.201-0.279,0.3c-0.094,0.099-0.19,0.196-0.286,0.293
		s-0.194,0.192-0.293,0.286c-0.099,0.094-0.199,0.187-0.3,0.279c-0.101,0.092-0.203,0.182-0.306,0.272
		c-0.103,0.089-0.207,0.178-0.313,0.265c-0.105,0.087-0.212,0.173-0.319,0.257s-0.216,0.168-0.325,0.25
		c-0.11,0.082-0.22,0.162-0.332,0.242s-0.224,0.157-0.337,0.234c-0.113,0.077-0.228,0.152-0.343,0.226
		c-0.115,0.074-0.232,0.147-0.349,0.218c-0.117,0.071-0.235,0.141-0.355,0.21c-0.119,0.068-0.239,0.136-0.36,0.201
		c-0.121,0.066-0.243,0.13-0.365,0.193c-0.123,0.063-0.246,0.124-0.37,0.184c-0.124,0.06-0.25,0.118-0.375,0.175
		c-0.126,0.057-0.253,0.112-0.38,0.166c-0.128,0.054-0.256,0.106-0.385,0.157s-0.259,0.1-0.39,0.148s-0.262,0.094-0.394,0.139
		s-0.265,0.088-0.399,0.129c-0.134,0.042-0.268,0.081-0.403,0.12c-0.135,0.038-0.271,0.075-0.407,0.11
		c-0.136,0.035-0.273,0.068-0.411,0.1c-0.138,0.032-0.276,0.062-0.415,0.09c-0.139,0.028-0.278,0.055-0.418,0.08
		c-0.14,0.025-0.281,0.048-0.422,0.07c-0.141,0.022-0.283,0.041-0.425,0.06s-0.285,0.034-0.429,0.049
		c-0.143,0.015-0.287,0.027-0.432,0.038c-0.144,0.011-0.289,0.02-0.435,0.028c-0.145,0.007-0.291,0.013-0.438,0.017
		c-0.146,0.004-0.293,0.006-0.44,0.006s-0.294-0.002-0.44-0.006s-0.292-0.009-0.438-0.017c-0.145-0.007-0.29-0.017-0.435-0.028
		c-0.144-0.011-0.288-0.024-0.432-0.038s-0.286-0.031-0.429-0.049c-0.142-0.018-0.284-0.038-0.425-0.06
		c-0.141-0.022-0.282-0.045-0.422-0.07c-0.14-0.025-0.28-0.052-0.418-0.08c-0.139-0.028-0.277-0.059-0.415-0.09
		c-0.138-0.032-0.275-0.065-0.411-0.1c-0.136-0.035-0.272-0.072-0.407-0.11c-0.135-0.038-0.269-0.078-0.403-0.12
		c-0.134-0.042-0.266-0.085-0.399-0.129c-0.132-0.045-0.264-0.091-0.394-0.139s-0.261-0.097-0.39-0.148
		c-0.129-0.051-0.258-0.103-0.385-0.157c-0.128-0.054-0.254-0.109-0.38-0.166s-0.251-0.115-0.375-0.175
		c-0.124-0.06-0.248-0.121-0.37-0.184c-0.123-0.063-0.244-0.127-0.365-0.193c-0.121-0.066-0.241-0.133-0.36-0.201
		c-0.119-0.068-0.237-0.138-0.355-0.21c-0.117-0.071-0.234-0.144-0.349-0.218c-0.115-0.074-0.23-0.149-0.343-0.226
		c-0.113-0.077-0.226-0.155-0.337-0.234c-0.112-0.079-0.222-0.16-0.332-0.242c-0.11-0.082-0.218-0.165-0.325-0.25
		c-0.107-0.084-0.214-0.17-0.319-0.257c-0.105-0.087-0.21-0.175-0.313-0.265c-0.103-0.089-0.205-0.18-0.306-0.272
		c-0.101-0.092-0.201-0.185-0.3-0.279c-0.099-0.094-0.196-0.19-0.293-0.286c-0.097-0.097-0.192-0.194-0.286-0.293
		s-0.187-0.199-0.279-0.3c-0.092-0.101-0.182-0.203-0.272-0.306c-0.089-0.103-0.178-0.207-0.265-0.313s-0.173-0.212-0.257-0.319
		c-0.084-0.107-0.168-0.216-0.25-0.325c-0.082-0.11-0.162-0.22-0.242-0.332s-0.157-0.224-0.234-0.337
		c-0.077-0.113-0.152-0.228-0.226-0.343s-0.147-0.232-0.218-0.349c-0.071-0.117-0.141-0.235-0.21-0.355
		c-0.068-0.119-0.136-0.239-0.201-0.36c-0.066-0.121-0.13-0.243-0.193-0.365c-0.063-0.123-0.124-0.246-0.184-0.37
		s-0.118-0.25-0.175-0.375c-0.057-0.126-0.112-0.253-0.166-0.38c-0.054-0.128-0.106-0.256-0.157-0.385s-0.1-0.259-0.148-0.39
		c-0.048-0.131-0.094-0.262-0.139-0.394c-0.045-0.132-0.088-0.265-0.129-0.399c-0.042-0.134-0.082-0.268-0.12-0.403
		c-0.038-0.135-0.075-0.271-0.11-0.407s-0.068-0.273-0.1-0.411c-0.032-0.138-0.062-0.276-0.09-0.415
		c-0.028-0.139-0.055-0.278-0.08-0.418c-0.025-0.14-0.048-0.281-0.07-0.422c-0.022-0.141-0.041-0.283-0.06-0.425
		c-0.018-0.142-0.034-0.285-0.049-0.429c-0.015-0.143-0.027-0.287-0.038-0.432c-0.011-0.144-0.02-0.289-0.028-0.435
		c-0.007-0.145-0.013-0.291-0.017-0.438c-0.004-0.146-0.006-0.293-0.006-0.44s0.002-0.294,0.006-0.44
		c0.004-0.146,0.009-0.292,0.017-0.438c0.007-0.145,0.017-0.29,0.028-0.435c0.011-0.144,0.024-0.288,0.038-0.432
		s0.031-0.286,0.049-0.429c0.018-0.142,0.038-0.284,0.06-0.425c0.022-0.141,0.045-0.282,0.07-0.422
		c0.025-0.14,0.052-0.28,0.08-0.418c0.028-0.139,0.059-0.277,0.09-0.415c0.032-0.138,0.065-0.275,0.1-0.411s0.072-0.272,0.11-0.407
		c0.038-0.135,0.078-0.269,0.12-0.403s0.085-0.266,0.129-0.399c0.045-0.132,0.091-0.264,0.139-0.394
		c0.048-0.131,0.097-0.261,0.148-0.39c0.051-0.129,0.103-0.258,0.157-0.385c0.054-0.128,0.109-0.254,0.166-0.38
		s0.115-0.251,0.175-0.375c0.06-0.124,0.121-0.248,0.184-0.37c0.063-0.123,0.127-0.244,0.193-0.365
		c0.066-0.121,0.133-0.241,0.201-0.36c0.068-0.119,0.138-0.237,0.21-0.355c0.071-0.117,0.144-0.234,0.218-0.349
		c0.074-0.115,0.149-0.23,0.226-0.343s0.155-0.226,0.234-0.337c0.079-0.112,0.16-0.222,0.242-0.332s0.165-0.218,0.25-0.325
		c0.084-0.107,0.17-0.214,0.257-0.319c0.087-0.105,0.175-0.21,0.265-0.313s0.18-0.205,0.272-0.306
		c0.092-0.101,0.185-0.201,0.279-0.3c0.094-0.099,0.19-0.196,0.286-0.293c0.096-0.097,0.194-0.192,0.293-0.286
		c0.099-0.094,0.199-0.187,0.3-0.279c0.101-0.092,0.203-0.182,0.306-0.272c0.103-0.089,0.207-0.178,0.313-0.265
		c0.105-0.087,0.212-0.173,0.319-0.257c0.107-0.084,0.216-0.168,0.325-0.25s0.22-0.162,0.332-0.242
		c0.112-0.079,0.224-0.157,0.337-0.234c0.113-0.077,0.228-0.152,0.343-0.226c0.115-0.074,0.232-0.147,0.349-0.218
		c0.117-0.071,0.235-0.141,0.355-0.21c0.119-0.068,0.239-0.136,0.36-0.201c0.121-0.066,0.243-0.13,0.365-0.193
		c0.123-0.063,0.246-0.124,0.37-0.184c0.124-0.06,0.25-0.118,0.375-0.175c0.126-0.057,0.253-0.112,0.38-0.166
		c0.128-0.054,0.256-0.106,0.385-0.157c0.129-0.051,0.259-0.1,0.39-0.148s0.262-0.094,0.394-0.139
		c0.132-0.045,0.265-0.088,0.399-0.129c0.134-0.042,0.268-0.081,0.403-0.12c0.135-0.038,0.271-0.075,0.407-0.11
		s0.273-0.068,0.411-0.1c0.138-0.032,0.276-0.062,0.415-0.09c0.139-0.028,0.278-0.055,0.418-0.08c0.14-0.025,0.281-0.048,0.422-0.07
		c0.141-0.022,0.283-0.041,0.425-0.06c0.142-0.018,0.285-0.034,0.429-0.049c0.143-0.015,0.287-0.027,0.432-0.038
		c0.144-0.011,0.289-0.02,0.435-0.028c0.145-0.007,0.291-0.013,0.438-0.017s0.293-0.006,0.44-0.006s0.294,0.002,0.44,0.006
		c0.146,0.004,0.292,0.009,0.438,0.017c0.145,0.007,0.29,0.017,0.435,0.028c0.144,0.011,0.288,0.024,0.432,0.038
		c0.143,0.015,0.286,0.031,0.429,0.049c0.142,0.018,0.284,0.038,0.425,0.06c0.141,0.022,0.282,0.045,0.422,0.07
		c0.14,0.025,0.28,0.052,0.418,0.08s0.277,0.059,0.415,0.09c0.138,0.032,0.275,0.065,0.411,0.1s0.272,0.072,0.407,0.11
		c0.135,0.038,0.269,0.078,0.403,0.12c0.134,0.042,0.266,0.085,0.399,0.129c0.132,0.045,0.264,0.091,0.394,0.139
		s0.261,0.097,0.39,0.148c0.129,0.051,0.258,0.103,0.385,0.157c0.128,0.054,0.254,0.109,0.38,0.166
		c0.126,0.057,0.251,0.115,0.375,0.175s0.248,0.121,0.37,0.184c0.123,0.063,0.244,0.127,0.365,0.193
		c0.121,0.066,0.241,0.133,0.36,0.201c0.119,0.068,0.237,0.138,0.355,0.21c0.117,0.071,0.234,0.144,0.349,0.218
		s0.23,0.149,0.343,0.226c0.113,0.077,0.226,0.155,0.337,0.234s0.222,0.16,0.332,0.242c0.109,0.082,0.218,0.165,0.325,0.25
		s0.214,0.17,0.319,0.257s0.21,0.175,0.313,0.265c0.103,0.089,0.205,0.18,0.306,0.272c0.101,0.092,0.201,0.185,0.3,0.279
		c0.099,0.094,0.196,0.19,0.293,0.286c0.097,0.096,0.192,0.194,0.286,0.293c0.094,0.099,0.187,0.199,0.279,0.3
		c0.092,0.101,0.182,0.203,0.272,0.306c0.089,0.103,0.178,0.207,0.265,0.313c0.087,0.105,0.173,0.212,0.257,0.319
		c0.084,0.107,0.168,0.216,0.25,0.325s0.162,0.22,0.242,0.332c0.079,0.112,0.157,0.224,0.234,0.337s0.152,0.228,0.226,0.343
		c0.074,0.115,0.147,0.232,0.218,0.349c0.071,0.117,0.141,0.235,0.21,0.355c0.068,0.119,0.136,0.239,0.201,0.36
		c0.066,0.121,0.13,0.243,0.193,0.365c0.063,0.123,0.124,0.246,0.184,0.37c0.06,0.124,0.118,0.25,0.175,0.375
		s0.112,0.253,0.166,0.38c0.054,0.128,0.106,0.256,0.157,0.385"/>
	<path fill="none" stroke="#706DB2" stroke-width="1.5" stroke-miterlimit="10" d="M59.538,20.533
		c-0.186-0.443-0.383-0.881-0.59-1.314s-0.424-0.859-0.65-1.279c-0.227-0.42-0.463-0.835-0.709-1.243
		c-0.246-0.408-0.501-0.81-0.766-1.204c-0.265-0.395-0.539-0.783-0.821-1.164c-0.283-0.381-0.574-0.756-0.875-1.122
		c-0.3-0.367-0.609-0.727-0.926-1.079c-0.317-0.352-0.642-0.697-0.976-1.033c-0.338-0.341-0.683-0.674-1.037-0.999
		c-0.354-0.325-0.715-0.641-1.084-0.949c-0.369-0.308-0.746-0.606-1.13-0.896c-0.384-0.29-0.775-0.57-1.173-0.842
		c-0.398-0.271-0.803-0.533-1.214-0.785c-0.412-0.252-0.83-0.495-1.254-0.727c-0.424-0.232-0.855-0.455-1.292-0.667
		c-0.437-0.212-0.879-0.414-1.327-0.605c-0.448-0.191-0.902-0.371-1.361-0.541C41.894,3.916,41.43,3.757,40.96,3.61
		c-0.469-0.147-0.944-0.283-1.423-0.407c-0.479-0.124-0.963-0.237-1.451-0.337c-0.488-0.101-0.981-0.189-1.477-0.266
		c-0.497-0.076-0.997-0.141-1.502-0.192c-0.504-0.052-1.012-0.091-1.524-0.117c-0.512-0.026-1.026-0.039-1.544-0.039
		c-1.029,0-2.046,0.052-3.048,0.154s-1.99,0.253-2.96,0.452c-0.97,0.199-1.924,0.444-2.857,0.735s-1.847,0.625-2.739,1.003
		c-0.892,0.377-1.761,0.796-2.606,1.255c-0.845,0.459-1.665,0.958-2.458,1.493c-0.793,0.536-1.559,1.109-2.295,1.716
		c-0.736,0.608-1.443,1.25-2.117,1.924s-1.317,1.381-1.924,2.117s-1.18,1.502-1.716,2.295c-0.536,0.793-1.034,1.613-1.493,2.458
		c-0.459,0.845-0.878,1.714-1.255,2.606c-0.377,0.892-0.712,1.806-1.003,2.739s-0.536,1.887-0.735,2.857
		c-0.199,0.97-0.35,1.958-0.452,2.96c-0.102,1.002-0.154,2.019-0.154,3.048c0,0.541,0.014,1.08,0.043,1.614
		c0.029,0.534,0.071,1.065,0.127,1.591s0.126,1.049,0.21,1.567c0.083,0.518,0.18,1.031,0.29,1.54s0.232,1.012,0.367,1.511
		s0.283,0.992,0.443,1.48c0.16,0.488,0.332,0.97,0.517,1.447c0.184,0.476,0.38,0.947,0.588,1.411
		c0.208,0.464,0.427,0.922,0.657,1.373c0.23,0.451,0.472,0.896,0.724,1.333c0.252,0.438,0.515,0.868,0.789,1.291
		c0.274,0.423,0.558,0.839,0.852,1.247c0.294,0.408,0.598,0.808,0.912,1.201c0.314,0.392,0.637,0.776,0.97,1.152
		c0.333,0.376,0.675,0.743,1.026,1.101c0.351,0.358,0.711,0.708,1.08,1.048c0.184,0.17,0.371,0.338,0.559,0.504
		c0.189,0.166,0.379,0.329,0.572,0.49s0.387,0.319,0.584,0.475s0.396,0.31,0.596,0.461s0.403,0.3,0.608,0.446
		c0.205,0.146,0.411,0.29,0.62,0.431c0.208,0.141,0.419,0.279,0.631,0.415c0.212,0.136,0.426,0.269,0.642,0.399
		s0.433,0.258,0.653,0.383c0.219,0.125,0.44,0.248,0.663,0.367c0.223,0.12,0.447,0.237,0.673,0.351
		c0.226,0.114,0.454,0.225,0.683,0.334c0.229,0.108,0.46,0.214,0.693,0.317c0.232,0.103,0.467,0.203,0.702,0.3
		c0.236,0.097,0.473,0.191,0.711,0.282c0.239,0.091,0.479,0.179,0.72,0.264h0c0,0,0,0,0,0l0,0c0,0,0,0,0,0c0,0,0,0,0,0c0,0,0,0,0,0
		c0,0,0,0,0,0c0,0,0,0,0,0l0,0c0,0,0,0,0,0c0,0,0,0,0,0c0,0,0,0,0,0c0,0,0,0,0,0c0,0,0,0,0,0s0,0,0,0c0,0,0,0,0,0
		c0.194,0.068,0.388,0.134,0.584,0.199c0.195,0.064,0.392,0.127,0.589,0.187c0.197,0.06,0.395,0.119,0.594,0.175
		c0.199,0.056,0.399,0.111,0.599,0.163c0.201,0.052,0.402,0.103,0.604,0.151c0.202,0.048,0.405,0.094,0.609,0.138
		c0.204,0.044,0.408,0.086,0.614,0.126c0.205,0.04,0.411,0.078,0.618,0.113c0.207,0.036,0.414,0.069,0.623,0.1
		c0.208,0.031,0.417,0.06,0.627,0.087s0.42,0.052,0.631,0.074c0.211,0.023,0.423,0.043,0.635,0.061
		c0.212,0.018,0.425,0.034,0.639,0.048s0.428,0.025,0.642,0.034c0.215,0.009,0.43,0.016,0.646,0.021
		c0.216,0.005,0.432,0.007,0.649,0.007c0.366,0,0.73-0.007,1.093-0.02c0.363-0.013,0.724-0.033,1.083-0.059
		c0.359-0.026,0.717-0.058,1.073-0.097c0.356-0.039,0.71-0.083,1.061-0.134c0.352-0.051,0.702-0.108,1.049-0.171
		c0.348-0.063,0.693-0.132,1.037-0.207c0.343-0.075,0.685-0.156,1.024-0.243c0.339-0.087,0.675-0.179,1.01-0.278
		c0.334-0.098,0.666-0.202,0.995-0.312s0.656-0.225,0.98-0.346c0.324-0.121,0.645-0.247,0.964-0.378
		c0.318-0.132,0.634-0.268,0.947-0.41c0.313-0.142,0.623-0.289,0.93-0.442s0.611-0.31,0.912-0.473
		c0.301-0.163,0.599-0.33,0.893-0.503c0.295-0.173,0.586-0.35,0.874-0.532c0.08-0.05,0.159-0.101,0.238-0.152
		s0.158-0.103,0.237-0.154c0.079-0.052,0.157-0.104,0.235-0.157c0.078-0.053,0.156-0.105,0.233-0.159
		c0.078-0.053,0.155-0.107,0.232-0.161s0.154-0.108,0.23-0.163c0.076-0.055,0.153-0.11,0.229-0.165
		c0.076-0.055,0.152-0.111,0.227-0.167c0.075-0.056,0.15-0.113,0.225-0.169s0.149-0.114,0.223-0.171
		c0.074-0.057,0.148-0.115,0.222-0.173c0.074-0.058,0.147-0.117,0.22-0.175c0.073-0.059,0.146-0.118,0.218-0.177
		s0.145-0.119,0.217-0.179c0.072-0.06,0.143-0.121,0.215-0.181c0.071-0.061,0.142-0.122,0.213-0.183
		c0.108-0.093,0.214-0.187,0.32-0.282c0.106-0.095,0.212-0.19,0.316-0.287c0.105-0.096,0.209-0.193,0.312-0.291
		s0.206-0.196,0.308-0.295c0.102-0.099,0.203-0.199,0.304-0.3s0.2-0.202,0.299-0.304s0.197-0.205,0.295-0.308
		s0.194-0.208,0.29-0.312c0.096-0.105,0.191-0.21,0.286-0.317s0.188-0.213,0.281-0.321c0.093-0.108,0.185-0.216,0.277-0.325
		c0.092-0.109,0.182-0.218,0.272-0.329c0.09-0.11,0.179-0.221,0.268-0.333c0.088-0.112,0.176-0.224,0.263-0.337
		c0.087-0.113,0.173-0.226,0.258-0.34c0.085-0.114,0.17-0.229,0.253-0.344"/>
	<path fill="none" stroke="#706DB2" stroke-width="1.5" stroke-linecap="round" stroke-miterlimit="10" d="M60.039,42.321
		c0.029-0.08,0.058-0.16,0.087-0.24c0.029-0.08,0.057-0.16,0.085-0.241c0.028-0.08,0.055-0.161,0.083-0.242
		c0.027-0.081,0.054-0.161,0.081-0.242c0.027-0.081,0.053-0.162,0.079-0.243s0.051-0.163,0.077-0.244
		c0.025-0.082,0.05-0.163,0.074-0.245c0.024-0.082,0.049-0.164,0.072-0.246c0.024-0.082,0.047-0.164,0.07-0.247
		c0.023-0.082,0.046-0.165,0.068-0.248s0.044-0.166,0.066-0.249s0.043-0.166,0.064-0.249c0.021-0.083,0.042-0.167,0.062-0.25
		c0.02-0.084,0.04-0.167,0.06-0.251c0.02-0.084,0.039-0.168,0.058-0.252c0.019-0.084,0.038-0.168,0.056-0.253"/>
	<path fill="none" stroke="#706DB2" stroke-width="1.5" stroke-miterlimit="10" d="M47.962,57.272
		c1.274-0.806,2.482-1.706,3.613-2.689c1.72-1.492,3.266-3.179,4.603-5.024c1.601-2.204,2.907-4.635,3.861-7.236"/>
	<path fill="none" stroke="#706DB2" stroke-width="1.5" stroke-miterlimit="10" d="M47.714,38.821c0,0,0.967-3.011,6.374-3.06
		c0.788,0,1.575,0,2.363,0c0.523,0,1.046,0,1.569,0c0.208,0,0.416,0,0.624,0c0.554,0,1.015,0.066,1.483,0.371
		c0.452,0.295,0.781,0.737,0.936,1.254c0.097,0.322,0.128,0.66,0.118,0.995"/>
	<path fill="none" stroke="#706DB2" stroke-width="1.5" stroke-linecap="round" stroke-linejoin="round" stroke-miterlimit="10" d="
		M15.232,31.008c0,0-1.486,22.166,6.88,29.185"/>
	<path display="none" fill="none" stroke="#706DB2" stroke-width="2" stroke-miterlimit="10" d="M38.687,53.987
		c5.127-4.447,9.733-9.473,13.719-14.973"/>
	<g>
		<path fill="#8E8DBE" d="M38.462,13.206c0,0,0.631,0.053,1.532,0.256c0.113,0.025,0.23,0.051,0.352,0.078l0.092,0.021l0.12,0.046
			l0.183,0.068c0.247,0.092,0.51,0.184,0.773,0.298c0.281,0.124,0.503,0.19,0.853,0.37c0.26,0.151,0.524,0.305,0.788,0.458
			c0.258,0.163,0.516,0.327,0.77,0.488c0.327,0.217,0.484,0.391,0.725,0.581c0.222,0.181,0.426,0.371,0.621,0.548
			c0.107,0.1,0.172,0.149,0.304,0.284c0.08,0.095,0.158,0.187,0.232,0.275c0.598,0.704,0.937,1.239,0.937,1.239
			s-0.565-0.286-1.323-0.815c-0.095-0.066-0.194-0.134-0.296-0.205c-0.097-0.059-0.198-0.119-0.301-0.182
			c-0.225-0.137-0.465-0.279-0.701-0.441c-0.227-0.15-0.461-0.304-0.699-0.461c-0.26-0.151-0.524-0.305-0.788-0.459
			c-0.258-0.164-0.516-0.327-0.77-0.488c-0.25-0.137-0.496-0.272-0.734-0.403c-0.253-0.135-0.489-0.283-0.714-0.419l-0.167-0.101
			c-0.014-0.011-0.086-0.046-0.05-0.036l-0.084-0.043c-0.11-0.058-0.217-0.114-0.319-0.167
			C38.978,13.573,38.462,13.206,38.462,13.206z"/>
	</g>
	<g>
		<path fill="#8E8DBE" d="M12.341,30.445c0,0,0.04-0.496,0.11-1.363c0.024-0.222,0.036-0.444,0.076-0.729
			c0.051-0.257,0.106-0.535,0.165-0.832c0.059-0.297,0.121-0.613,0.187-0.946c0.086-0.379,0.211-0.677,0.322-1.043
			c0.126-0.365,0.214-0.698,0.384-1.128c0.162-0.367,0.329-0.747,0.5-1.137c0.095-0.209,0.152-0.362,0.282-0.624
			c0.107-0.191,0.216-0.384,0.325-0.579c0.231-0.405,0.418-0.756,0.718-1.215c0.272-0.377,0.548-0.761,0.828-1.149l0.21-0.292
			c0.13-0.165,0.173-0.202,0.264-0.309l0.487-0.543l0.491-0.547c0.226-0.253,0.375-0.357,0.567-0.544
			c0.384-0.344,0.684-0.649,1.139-1.027l1.195-0.883c0.467-0.359,0.858-0.536,1.286-0.811l0.626-0.375
			c0.294-0.158,0.459-0.217,0.693-0.33c0.454-0.203,0.821-0.39,1.331-0.599c0.44-0.15,0.873-0.298,1.297-0.443
			c0.231-0.068,0.382-0.142,0.673-0.203c0.214-0.047,0.425-0.094,0.633-0.14c0.428-0.092,0.844-0.182,1.246-0.269
			c0.399-0.047,0.784-0.092,1.153-0.135c0.382-0.032,0.697-0.111,1.088-0.099c0.34,0.002,0.662,0.004,0.964,0.006
			c0.303,0.002,0.586,0.004,0.848,0.005c0.266,0.028,0.509,0.053,0.73,0.076c0.864,0.106,1.357,0.166,1.357,0.166
			s-0.497,0.01-1.367,0.028c-0.213,0.002-0.449,0.004-0.706,0.006c-0.26,0.028-0.542,0.058-0.843,0.091
			c-0.301,0.032-0.621,0.067-0.959,0.103c-0.289,0.015-0.672,0.116-1.028,0.174c-0.366,0.069-0.747,0.141-1.141,0.215
			c-0.375,0.11-0.763,0.223-1.162,0.34c-0.205,0.06-0.412,0.121-0.622,0.183c-0.139,0.029-0.39,0.151-0.584,0.223
			c-0.417,0.163-0.843,0.33-1.276,0.499c-0.344,0.157-0.818,0.408-1.229,0.611c-0.194,0.101-0.473,0.232-0.601,0.309l-0.621,0.382
			c-0.39,0.256-0.892,0.514-1.199,0.773l-1.185,0.897c-0.311,0.252-0.722,0.641-1.077,0.953c-0.164,0.155-0.41,0.352-0.507,0.472
			l-0.498,0.541l-0.494,0.536l-0.216,0.231l-0.221,0.284c-0.293,0.378-0.583,0.752-0.868,1.119
			c-0.222,0.309-0.481,0.759-0.724,1.113c-0.123,0.187-0.244,0.372-0.364,0.555c-0.097,0.182-0.193,0.362-0.287,0.539
			c-0.198,0.378-0.391,0.745-0.578,1.1c-0.147,0.306-0.295,0.713-0.434,1.043c-0.133,0.336-0.29,0.695-0.385,0.97
			c-0.103,0.324-0.201,0.631-0.292,0.919c-0.092,0.288-0.178,0.558-0.257,0.808c-0.059,0.227-0.105,0.484-0.151,0.69
			C12.451,29.96,12.341,30.445,12.341,30.445z"/>
	</g>
	<g>
		<path fill="#8E8DBE" d="M55.619,26.908c0,0-0.267,0.258-0.706,0.518c-0.235,0.111-0.561,0.189-0.911,0.261
			c-0.064,0.007-0.044,0.02-0.178,0.021l-0.12,0.001c-0.08,0.001-0.162,0.001-0.243-0.006c-0.163-0.011-0.328-0.021-0.493-0.032
			c-0.174-0.037-0.367-0.111-0.545-0.168c-0.195-0.066-0.322-0.115-0.542-0.231c-0.256-0.182-0.486-0.358-0.672-0.546
			c-0.37-0.448-0.499-0.778-0.499-0.778s0.381,0.092,0.778,0.276c0.237,0.069,0.526,0.155,0.813,0.274
			c0.062,0.011,0.251,0.032,0.365,0.07c0.135,0.033,0.253,0.082,0.403,0.108c0.164,0.022,0.328,0.045,0.49,0.067
			c0.081,0.009,0.161,0.025,0.239,0.042l0.117,0.025c-0.056-0.002,0.042,0,0.055,0c0.132-0.003,0.264,0.016,0.393,0.028
			c0.129,0.005,0.253,0.045,0.381,0.042C55.254,26.846,55.619,26.908,55.619,26.908z"/>
	</g>
	<g>
		<path fill="#8E8DBE" d="M58.354,22.782c0,0,0.155,0.128,0.256,0.307c0.109,0.179,0.17,0.41,0.151,0.633
			c-0.067,0.248-0.228,0.488-0.403,0.623c-0.169,0.141-0.357,0.18-0.357,0.18s-0.122-0.174-0.191-0.353
			c-0.078-0.185-0.099-0.37-0.044-0.551c0.026-0.222,0.132-0.436,0.274-0.59C58.176,22.877,58.354,22.782,58.354,22.782z"/>
	</g>
	<g>
		<path fill="#8E8DBE" d="M58.602,58.633c0,0-0.055,0.11-0.163,0.29c-0.042,0.083-0.134,0.21-0.229,0.315
			c-0.046,0.056-0.095,0.115-0.147,0.177l-0.04,0.047l-0.066,0.057l-0.096,0.087c-0.065,0.059-0.133,0.12-0.204,0.184
			c-0.13,0.097-0.174,0.118-0.269,0.184c-0.101,0.061-0.13,0.1-0.296,0.183c-0.092,0.051-0.191,0.092-0.289,0.139
			c-0.303,0.129-0.389,0.158-0.72,0.251l-0.338,0.062c-0.079,0.012-0.064,0.017-0.22,0.035l-0.173,0.014
			c-0.137,0.003-0.182,0.011-0.395,0.008l-0.343-0.023c-0.34-0.026-0.429-0.074-0.745-0.144c-0.103-0.035-0.206-0.063-0.304-0.102
			l-0.073-0.028c-0.098-0.03-0.067-0.028-0.107-0.044l-0.136-0.067c-0.099-0.05-0.196-0.098-0.29-0.145
			c-0.078-0.054-0.154-0.106-0.226-0.156c-0.08-0.057-0.125-0.081-0.225-0.16c-0.06-0.055-0.116-0.107-0.169-0.156
			c-0.1-0.086-0.208-0.199-0.269-0.28c-0.131-0.164-0.201-0.266-0.201-0.266s0.119,0.033,0.317,0.104
			c0.099,0.042,0.197,0.063,0.345,0.111c0.069,0.022,0.142,0.045,0.219,0.069c0.071,0.018,0.145,0.037,0.222,0.056
			c0.085,0.022,0.174,0.045,0.266,0.069c0.033-0.005,0.171,0.033,0.256,0.048l0.149,0.031c0.009,0,0.087,0.023,0.039,0.004
			l0.078,0.009c0.105,0.009,0.209,0.032,0.317,0.047c0.188,0.011,0.381,0.023,0.578,0.035l0.344,0.006l0.297-0.024l0.173-0.006
			c-0.041,0.006,0.087-0.011,0.122-0.016l0.341-0.045c0.105-0.036,0.465-0.08,0.563-0.12c0.105-0.029,0.206-0.063,0.309-0.085
			c0.027,0.006,0.176-0.057,0.255-0.081c0.081-0.027,0.217-0.079,0.245-0.082c0.088-0.036,0.173-0.071,0.254-0.104l0.12-0.049
			c0.01-0.002,0.06-0.029,0.037-0.01l0.055-0.027c0.073-0.035,0.143-0.067,0.208-0.098c0.133-0.062,0.226-0.096,0.326-0.158
			C58.489,58.682,58.602,58.633,58.602,58.633z"/>
	</g>
	<g>
		<path fill="#8E8DBE" d="M43.113,47.92c0,0-0.288,0.221-0.803,0.587c-0.271,0.175-0.546,0.415-0.961,0.641
			c-0.382,0.218-0.814,0.464-1.292,0.717c-0.538,0.257-1.049,0.452-1.634,0.69c-0.646,0.251-1.234,0.384-1.898,0.576
			c-0.739,0.183-1.372,0.262-2.089,0.384c-0.799,0.08-1.452,0.093-2.191,0.143c-0.838-0.049-1.42-0.062-2.241-0.142
			c-0.718-0.12-1.35-0.201-2.09-0.383c-0.664-0.193-1.252-0.325-1.898-0.576c-0.585-0.239-1.096-0.432-1.634-0.69
			c-0.478-0.253-0.909-0.499-1.292-0.717c-0.415-0.226-0.689-0.466-0.96-0.641c-0.515-0.366-0.803-0.588-0.803-0.588
			s0.332,0.145,0.902,0.42c0.282,0.126,0.632,0.338,1.019,0.472c0.412,0.154,0.877,0.329,1.377,0.534
			c0.458,0.156,1.065,0.318,1.641,0.507c0.52,0.161,1.223,0.265,1.861,0.425c0.575,0.124,1.338,0.17,2.018,0.282
			c0.589,0.05,1.45,0.064,2.049,0.099c0.698-0.034,1.488-0.049,2.099-0.099c0.68-0.11,1.443-0.158,2.018-0.282
			c0.639-0.16,1.341-0.263,1.862-0.425c0.576-0.189,1.183-0.35,1.641-0.507c0.5-0.206,0.965-0.38,1.377-0.535
			c0.387-0.134,0.737-0.346,1.019-0.472C42.781,48.065,43.113,47.92,43.113,47.92z"/>
	</g>
	<g>
		<path fill="#8E8DBE" d="M50.172,39.576c0,0-0.055,0.487-0.255,1.16c-0.049,0.169-0.102,0.352-0.17,0.539
			c-0.096,0.258-0.172,0.396-0.279,0.603c-0.193,0.389-0.431,0.784-0.666,1.181c-0.154,0.193-0.308,0.386-0.46,0.575
			c-0.138,0.18-0.298,0.339-0.44,0.502c-0.156,0.173-0.259,0.292-0.466,0.472c-0.151,0.13-0.303,0.245-0.444,0.349
			c-0.559,0.424-0.996,0.646-0.996,0.646s0.192-0.452,0.577-1.038c0.095-0.148,0.199-0.307,0.318-0.467
			c0.099-0.159,0.204-0.326,0.313-0.499c0.122-0.179,0.234-0.374,0.372-0.554c0.125-0.17,0.251-0.343,0.378-0.516
			c0.253-0.385,0.504-0.773,0.768-1.117c0.111-0.166,0.291-0.363,0.357-0.468c0.107-0.168,0.22-0.321,0.325-0.462
			C49.817,39.915,50.172,39.576,50.172,39.576z"/>
	</g>
</g>
</svg>
