<?xml version="1.0" encoding="utf-8"?>
<!-- Generator: Adobe Illustrator 17.0.0, SVG Export Plug-In . SVG Version: 6.00 Build 0)  -->
<!DOCTYPE svg PUBLIC "-//W3C//DTD SVG 1.1//EN" "http://www.w3.org/Graphics/SVG/1.1/DTD/svg11.dtd">
<svg version="1.1" id="Layer_1" xmlns="http://www.w3.org/2000/svg" xmlns:xlink="http://www.w3.org/1999/xlink" x="0px" y="0px"
	 width="650px" height="400px" viewBox="0 0 650 400" enable-background="new 0 0 650 400" xml:space="preserve">
<rect x="-2" fill="#FFFFFF" width="652" height="400"/>
<path fill="#F8C463" stroke="#FFFFFF" stroke-width="4" stroke-miterlimit="10" d="M760.254,138.808
	c-7.763,7.763-14.045,17.007-18.387,27.272s-6.742,21.55-6.742,33.396h-61.886c0-20.391,4.133-39.816,11.606-57.485
	s18.287-33.58,31.65-46.943"/>
<path fill="#CBCAE4" stroke="#FFFFFF" stroke-width="4" stroke-miterlimit="10" d="M716.494,95.048
	c13.363-13.363,29.274-24.177,46.943-31.65c17.669-7.473,37.094-11.606,57.485-11.606v61.886c-11.846,0-23.131,2.401-33.396,6.742
	c-10.265,4.342-19.508,10.624-27.272,18.387"/>
<path fill="#86CFC1" stroke="#FFFFFF" stroke-width="4" stroke-miterlimit="10" d="M820.922,285.273
	c-11.846,0-23.131-2.401-33.396-6.742c-10.265-4.342-19.508-10.624-27.272-18.387c-7.763-7.763-14.045-17.007-18.387-27.272
	s-6.742-21.55-6.742-33.396h-61.886c0,20.391,4.133,39.816,11.606,57.485s18.287,33.58,31.65,46.943s29.274,24.177,46.943,31.65
	c17.669,7.473,37.094,11.606,57.485,11.606V285.273z"/>
<path fill="#6F6CB1" stroke="#FFFFFF" stroke-width="4" stroke-miterlimit="10" d="M957,141.991
	c-7.473-17.669-18.287-33.58-31.65-46.943c-13.363-13.363-29.274-24.177-46.943-31.65c-17.669-7.473-37.094-11.606-57.485-11.606
	v61.886c11.846,0,23.131,2.401,33.396,6.742c10.265,4.342,19.509,10.624,27.272,18.387c7.763,7.763,14.045,17.007,18.387,27.272
	c4.342,10.265,6.742,21.55,6.742,33.396c0,11.846-2.401,23.131-6.742,33.396c-4.342,10.265-10.624,19.508-18.387,27.272
	c-7.763,7.763-17.007,14.045-27.272,18.387c-10.264,4.342-21.55,6.742-33.396,6.742v61.886c20.391,0,39.816-4.133,57.485-11.606
	c17.669-7.473,33.58-18.287,46.943-31.65c13.363-13.363,24.177-29.274,31.65-46.943c7.473-17.669,11.606-37.094,11.606-57.485
	C968.605,179.085,964.473,159.659,957,141.991z"/>
<line fill="none" stroke="#FFFFFF" stroke-width="4" stroke-miterlimit="10" x1="716.494" y1="95.048" x2="760.254" y2="138.808"/>
<circle fill="#CBCAE4" cx="43.427" cy="41.637" r="21.823"/>
<g>
	<path fill="none" stroke="#5658A6" stroke-width="2" stroke-miterlimit="10" d="M54.412,48.441c0,0.853-0.561,1.544-1.254,1.544
		H33.69c-0.693,0-1.254-0.691-1.254-1.544V35.648c0-0.853,0.561-1.544,1.254-1.544h19.468c0.693,0,1.254,0.691,1.254,1.544V48.441z"
		/>
	
		<line fill="none" stroke="#5658A6" stroke-width="2" stroke-linecap="round" stroke-miterlimit="10" x1="32.681" y1="34.735" x2="43.424" y2="42.045"/>
	
		<line fill="none" stroke="#5658A6" stroke-width="2" stroke-linecap="round" stroke-miterlimit="10" x1="43.603" y1="42.063" x2="54.053" y2="34.532"/>
</g>
<g>
	<path d="M75.977,29.917h-1.3V19.492h1.3V29.917z"/>
	<path d="M77.805,29.917v-7.513h1.185v1.199h0.029c0.217-0.419,0.527-0.745,0.932-0.979c0.404-0.233,0.889-0.35,1.452-0.35
		c0.818,0,1.457,0.247,1.914,0.74c0.458,0.494,0.687,1.169,0.687,2.026v4.876h-1.257v-4.652c0-0.612-0.145-1.078-0.434-1.398
		s-0.72-0.48-1.293-0.48c-0.593,0-1.067,0.193-1.423,0.578c-0.356,0.385-0.535,0.896-0.535,1.531v4.421H77.805z"/>
	<path d="M89.335,30.046c-0.54,0-1.021-0.123-1.441-0.368c-0.422-0.246-0.755-0.59-1.001-1.033h-0.028v1.271h-1.199V19.492h1.257
		v4.168h0.028c0.236-0.433,0.564-0.773,0.986-1.019s0.895-0.368,1.42-0.368c0.948,0,1.714,0.354,2.297,1.062
		c0.583,0.708,0.874,1.649,0.874,2.824c0,1.18-0.291,2.123-0.874,2.829S90.298,30.046,89.335,30.046z M89.089,23.378
		c-0.641,0-1.163,0.257-1.567,0.77c-0.405,0.513-0.607,1.184-0.607,2.012c0,0.833,0.202,1.505,0.607,2.016
		c0.404,0.511,0.927,0.766,1.567,0.766c0.665,0,1.189-0.25,1.575-0.748c0.385-0.499,0.577-1.176,0.577-2.034
		c0-0.852-0.192-1.529-0.577-2.03C90.278,23.629,89.754,23.378,89.089,23.378z"/>
	<path d="M96.912,30.046c-1.05,0-1.893-0.35-2.528-1.051c-0.636-0.701-0.953-1.646-0.953-2.836c0-1.189,0.317-2.135,0.953-2.835
		s1.479-1.051,2.528-1.051c1.045,0,1.886,0.35,2.521,1.051s0.954,1.646,0.954,2.835c0,1.185-0.318,2.129-0.954,2.832
		S97.957,30.046,96.912,30.046z M95.305,28.205c0.397,0.491,0.934,0.737,1.607,0.737c0.675,0,1.209-0.245,1.604-0.733
		c0.395-0.489,0.592-1.171,0.592-2.048c0-0.876-0.197-1.559-0.592-2.048c-0.396-0.489-0.93-0.733-1.604-0.733
		c-0.674,0-1.21,0.246-1.607,0.737s-0.596,1.173-0.596,2.044C94.709,27.032,94.907,27.713,95.305,28.205z"/>
	<path d="M104.165,27.056h-0.028l-1.813,2.861h-1.395l2.558-3.757l-2.514-3.756h1.401l1.806,2.817h0.029l1.784-2.817h1.401
		l-2.536,3.706l2.5,3.807h-1.395L104.165,27.056z"/>
</g>
<g>
	<path fill="#8F8F8E" d="M82.152,47h-0.984v-6.516h-0.041l-2.695,6.457h-0.891l-2.695-6.457h-0.041V47H73.82v-8.455h1.225
		l2.918,7.055h0.047l2.918-7.055h1.225V47z"/>
	<path fill="#8F8F8E" d="M87.678,45.254h1.002c-0.09,0.539-0.37,0.982-0.841,1.33s-1.036,0.521-1.696,0.521
		c-0.871,0-1.557-0.281-2.057-0.844s-0.75-1.324-0.75-2.285c0-0.953,0.251-1.721,0.753-2.303s1.171-0.873,2.007-0.873
		c0.82,0,1.469,0.275,1.945,0.826s0.715,1.289,0.715,2.215v0.387h-4.371v0.059c0,0.586,0.16,1.055,0.48,1.406
		s0.754,0.527,1.301,0.527c0.383,0,0.709-0.088,0.979-0.264S87.592,45.547,87.678,45.254z M86.078,41.686
		c-0.473,0-0.864,0.163-1.175,0.489s-0.481,0.745-0.513,1.257h3.311c-0.012-0.516-0.166-0.936-0.463-1.26
		S86.555,41.686,86.078,41.686z"/>
	<path fill="#8F8F8E" d="M89.676,42.588c0-0.523,0.212-0.952,0.636-1.286s0.97-0.501,1.638-0.501c0.629,0,1.152,0.168,1.57,0.504
		s0.639,0.762,0.662,1.277h-0.973c-0.035-0.297-0.167-0.529-0.396-0.697s-0.528-0.252-0.899-0.252s-0.67,0.083-0.896,0.249
		s-0.34,0.384-0.34,0.653c0,0.414,0.338,0.707,1.014,0.879l0.943,0.229c0.613,0.156,1.046,0.358,1.298,0.606
		s0.378,0.597,0.378,1.046c0,0.531-0.227,0.966-0.68,1.304s-1.035,0.507-1.746,0.507c-0.664,0-1.212-0.165-1.644-0.495
		s-0.675-0.767-0.729-1.31h1.02c0.113,0.648,0.586,0.973,1.418,0.973c0.41,0,0.735-0.081,0.976-0.243s0.36-0.382,0.36-0.659
		c0-0.219-0.071-0.393-0.214-0.521s-0.384-0.238-0.724-0.328l-1.072-0.275C90.209,43.973,89.676,43.42,89.676,42.588z"/>
	<path fill="#8F8F8E" d="M95.26,42.588c0-0.523,0.212-0.952,0.636-1.286s0.97-0.501,1.638-0.501c0.629,0,1.152,0.168,1.57,0.504
		s0.639,0.762,0.662,1.277h-0.973c-0.035-0.297-0.167-0.529-0.396-0.697s-0.528-0.252-0.899-0.252s-0.67,0.083-0.896,0.249
		s-0.34,0.384-0.34,0.653c0,0.414,0.338,0.707,1.014,0.879l0.943,0.229c0.613,0.156,1.046,0.358,1.298,0.606
		s0.378,0.597,0.378,1.046c0,0.531-0.227,0.966-0.68,1.304s-1.035,0.507-1.746,0.507c-0.664,0-1.212-0.165-1.644-0.495
		s-0.675-0.767-0.729-1.31h1.02c0.113,0.648,0.586,0.973,1.418,0.973c0.41,0,0.735-0.081,0.976-0.243s0.36-0.382,0.36-0.659
		c0-0.219-0.071-0.393-0.214-0.521s-0.384-0.238-0.724-0.328l-1.072-0.275C95.793,43.973,95.26,43.42,95.26,42.588z"/>
	<path fill="#8F8F8E" d="M102.73,47.105c-0.605,0-1.095-0.168-1.468-0.504s-0.56-0.777-0.56-1.324c0-0.523,0.192-0.941,0.577-1.254
		s0.929-0.488,1.632-0.527l1.746-0.1v-0.51c0-0.371-0.117-0.662-0.352-0.873s-0.563-0.316-0.984-0.316
		c-0.387,0-0.701,0.085-0.943,0.255s-0.396,0.407-0.463,0.712h-0.984c0.035-0.543,0.271-0.989,0.706-1.339s1.005-0.524,1.708-0.524
		c0.715,0,1.282,0.18,1.702,0.539s0.63,0.842,0.63,1.447V47h-0.967v-1.049h-0.023c-0.184,0.348-0.453,0.627-0.809,0.838
		S103.141,47.105,102.73,47.105z M102.959,46.238c0.48,0,0.884-0.149,1.21-0.448s0.489-0.667,0.489-1.104v-0.498l-1.629,0.1
		c-0.41,0.027-0.728,0.127-0.952,0.299s-0.337,0.402-0.337,0.691s0.111,0.521,0.334,0.697S102.592,46.238,102.959,46.238z"/>
	<path fill="#8F8F8E" d="M109.486,49.297c-0.668,0-1.242-0.169-1.723-0.507s-0.764-0.767-0.85-1.286h1.049
		c0.102,0.281,0.293,0.506,0.574,0.674s0.611,0.252,0.99,0.252c0.523,0,0.937-0.139,1.239-0.416s0.454-0.645,0.454-1.102v-0.961
		h-0.023c-0.191,0.336-0.459,0.603-0.803,0.8s-0.727,0.296-1.148,0.296c-0.777,0-1.4-0.283-1.869-0.85s-0.703-1.322-0.703-2.268
		c0-0.953,0.235-1.713,0.706-2.279s1.101-0.85,1.89-0.85c0.43,0,0.816,0.1,1.16,0.299s0.617,0.477,0.82,0.832h0.018v-1.025h0.973
		v5.971c0,0.73-0.25,1.316-0.75,1.758S110.322,49.297,109.486,49.297z M109.451,46.15c0.531,0,0.959-0.203,1.283-0.609
		s0.486-0.943,0.486-1.611c0-0.672-0.162-1.212-0.486-1.62s-0.752-0.612-1.283-0.612c-0.527,0-0.948,0.202-1.263,0.606
		s-0.472,0.946-0.472,1.626s0.157,1.22,0.472,1.62S108.924,46.15,109.451,46.15z"/>
	<path fill="#8F8F8E" d="M117.607,45.254h1.002c-0.09,0.539-0.37,0.982-0.841,1.33s-1.036,0.521-1.696,0.521
		c-0.871,0-1.557-0.281-2.057-0.844s-0.75-1.324-0.75-2.285c0-0.953,0.251-1.721,0.753-2.303s1.171-0.873,2.007-0.873
		c0.82,0,1.469,0.275,1.945,0.826s0.715,1.289,0.715,2.215v0.387h-4.371v0.059c0,0.586,0.16,1.055,0.48,1.406
		s0.754,0.527,1.301,0.527c0.383,0,0.709-0.088,0.979-0.264S117.521,45.547,117.607,45.254z M116.008,41.686
		c-0.473,0-0.864,0.163-1.175,0.489s-0.481,0.745-0.513,1.257h3.311c-0.012-0.516-0.166-0.936-0.463-1.26
		S116.484,41.686,116.008,41.686z"/>
	<path fill="#8F8F8E" d="M119.605,42.588c0-0.523,0.212-0.952,0.636-1.286s0.97-0.501,1.638-0.501c0.629,0,1.152,0.168,1.57,0.504
		s0.639,0.762,0.662,1.277h-0.973c-0.035-0.297-0.167-0.529-0.396-0.697s-0.528-0.252-0.899-0.252s-0.67,0.083-0.896,0.249
		s-0.34,0.384-0.34,0.653c0,0.414,0.338,0.707,1.014,0.879l0.943,0.229c0.613,0.156,1.046,0.358,1.298,0.606
		s0.378,0.597,0.378,1.046c0,0.531-0.227,0.966-0.68,1.304s-1.035,0.507-1.746,0.507c-0.664,0-1.212-0.165-1.644-0.495
		s-0.675-0.767-0.729-1.31h1.02c0.113,0.648,0.586,0.973,1.418,0.973c0.41,0,0.735-0.081,0.976-0.243s0.36-0.382,0.36-0.659
		c0-0.219-0.071-0.393-0.214-0.521s-0.384-0.238-0.724-0.328l-1.072-0.275C120.139,43.973,119.605,43.42,119.605,42.588z"/>
	<path fill="#8F8F8E" d="M127.756,47v-6.094h0.961v0.996h0.023c0.102-0.34,0.284-0.608,0.548-0.806s0.573-0.296,0.929-0.296
		c0.082,0,0.219,0.014,0.41,0.041v0.99c-0.109-0.039-0.291-0.059-0.545-0.059c-0.395,0-0.711,0.131-0.949,0.393
		s-0.357,0.607-0.357,1.037V47H127.756z"/>
	<path fill="#8F8F8E" d="M135.203,45.254h1.002c-0.09,0.539-0.37,0.982-0.841,1.33s-1.036,0.521-1.696,0.521
		c-0.871,0-1.557-0.281-2.057-0.844s-0.75-1.324-0.75-2.285c0-0.953,0.251-1.721,0.753-2.303s1.171-0.873,2.007-0.873
		c0.82,0,1.469,0.275,1.945,0.826s0.715,1.289,0.715,2.215v0.387h-4.371v0.059c0,0.586,0.16,1.055,0.48,1.406
		s0.754,0.527,1.301,0.527c0.383,0,0.709-0.088,0.979-0.264S135.117,45.547,135.203,45.254z M133.604,41.686
		c-0.473,0-0.864,0.163-1.175,0.489s-0.481,0.745-0.513,1.257h3.311c-0.012-0.516-0.166-0.936-0.463-1.26
		S134.08,41.686,133.604,41.686z"/>
	<path fill="#8F8F8E" d="M142.369,42.904h-0.996c-0.078-0.352-0.251-0.641-0.519-0.867s-0.614-0.34-1.04-0.34
		c-0.531,0-0.959,0.204-1.283,0.612s-0.486,0.956-0.486,1.644c0,0.699,0.163,1.25,0.489,1.652s0.757,0.604,1.292,0.604
		c0.41,0,0.749-0.103,1.017-0.308s0.446-0.493,0.536-0.864h1.002c-0.078,0.609-0.353,1.106-0.823,1.491s-1.05,0.577-1.737,0.577
		c-0.852,0-1.533-0.282-2.045-0.847s-0.768-1.333-0.768-2.306c0-0.957,0.256-1.722,0.768-2.294s1.189-0.858,2.033-0.858
		c0.727,0,1.317,0.205,1.772,0.615S142.299,42.322,142.369,42.904z"/>
	<path fill="#8F8F8E" d="M147.361,45.254h1.002c-0.09,0.539-0.37,0.982-0.841,1.33s-1.036,0.521-1.696,0.521
		c-0.871,0-1.557-0.281-2.057-0.844s-0.75-1.324-0.75-2.285c0-0.953,0.251-1.721,0.753-2.303s1.171-0.873,2.007-0.873
		c0.82,0,1.469,0.275,1.945,0.826s0.715,1.289,0.715,2.215v0.387h-4.371v0.059c0,0.586,0.16,1.055,0.48,1.406
		s0.754,0.527,1.301,0.527c0.383,0,0.709-0.088,0.979-0.264S147.275,45.547,147.361,45.254z M145.762,41.686
		c-0.473,0-0.864,0.163-1.175,0.489s-0.481,0.745-0.513,1.257h3.311c-0.012-0.516-0.166-0.936-0.463-1.26
		S146.238,41.686,145.762,41.686z"/>
	<path fill="#8F8F8E" d="M150.027,39.881c-0.172,0-0.32-0.063-0.445-0.188s-0.188-0.273-0.188-0.445
		c0-0.176,0.063-0.325,0.188-0.448s0.273-0.185,0.445-0.185c0.176,0,0.326,0.062,0.451,0.185s0.188,0.272,0.188,0.448
		c0,0.172-0.063,0.32-0.188,0.445S150.203,39.881,150.027,39.881z M149.518,47v-6.094h1.02V47H149.518z"/>
	<path fill="#8F8F8E" d="M156.912,40.906L154.674,47h-1.043l-2.244-6.094h1.072l1.682,5.01h0.023l1.688-5.01H156.912z"/>
	<path fill="#8F8F8E" d="M161.576,45.254h1.002c-0.09,0.539-0.37,0.982-0.841,1.33s-1.036,0.521-1.696,0.521
		c-0.871,0-1.557-0.281-2.057-0.844s-0.75-1.324-0.75-2.285c0-0.953,0.251-1.721,0.753-2.303s1.171-0.873,2.007-0.873
		c0.82,0,1.469,0.275,1.945,0.826s0.715,1.289,0.715,2.215v0.387h-4.371v0.059c0,0.586,0.16,1.055,0.48,1.406
		s0.754,0.527,1.301,0.527c0.383,0,0.709-0.088,0.979-0.264S161.49,45.547,161.576,45.254z M159.977,41.686
		c-0.473,0-0.864,0.163-1.175,0.489s-0.481,0.745-0.513,1.257h3.311c-0.012-0.516-0.166-0.936-0.463-1.26
		S160.453,41.686,159.977,41.686z"/>
	<path fill="#8F8F8E" d="M165.988,47.105c-0.781,0-1.411-0.287-1.89-0.861s-0.718-1.338-0.718-2.291
		c0-0.949,0.238-1.712,0.715-2.288s1.1-0.864,1.869-0.864c0.43,0,0.814,0.098,1.154,0.293s0.602,0.463,0.785,0.803h0.023v-3.352
		h1.02V47h-0.973v-1.031h-0.018c-0.199,0.355-0.469,0.634-0.809,0.835S166.422,47.105,165.988,47.105z M166.182,41.697
		c-0.539,0-0.967,0.204-1.283,0.612s-0.475,0.956-0.475,1.644c0,0.691,0.158,1.24,0.475,1.646s0.744,0.609,1.283,0.609
		c0.527,0,0.951-0.206,1.271-0.618s0.48-0.958,0.48-1.638s-0.161-1.226-0.483-1.638S166.705,41.697,166.182,41.697z"/>
	<path fill="#8F8F8E" d="M173.113,47v-5.256h-0.85v-0.838h0.85v-0.68c0-0.586,0.138-1.021,0.413-1.304s0.694-0.425,1.257-0.425
		c0.219,0,0.426,0.016,0.621,0.047v0.826c-0.164-0.023-0.318-0.035-0.463-0.035c-0.543,0-0.814,0.299-0.814,0.896v0.674h1.248v0.838
		h-1.242V47H173.113z"/>
	<path fill="#8F8F8E" d="M176.43,47v-6.094h0.961v0.996h0.023c0.102-0.34,0.284-0.608,0.548-0.806s0.573-0.296,0.929-0.296
		c0.082,0,0.219,0.014,0.41,0.041v0.99c-0.109-0.039-0.291-0.059-0.545-0.059c-0.395,0-0.711,0.131-0.949,0.393
		s-0.357,0.607-0.357,1.037V47H176.43z"/>
	<path fill="#8F8F8E" d="M182.359,47.105c-0.852,0-1.535-0.284-2.051-0.853s-0.773-1.335-0.773-2.3s0.258-1.731,0.773-2.3
		s1.199-0.853,2.051-0.853c0.848,0,1.529,0.284,2.045,0.853s0.773,1.335,0.773,2.3c0,0.961-0.258,1.727-0.773,2.297
		S183.207,47.105,182.359,47.105z M181.056,45.611c0.322,0.398,0.757,0.598,1.304,0.598s0.98-0.198,1.301-0.595
		s0.48-0.95,0.48-1.661s-0.16-1.265-0.48-1.661s-0.754-0.595-1.301-0.595s-0.981,0.199-1.304,0.598s-0.483,0.951-0.483,1.658
		S180.733,45.213,181.056,45.611z"/>
	<path fill="#8F8F8E" d="M186.203,47v-6.094h0.961v0.973h0.023c0.148-0.332,0.373-0.595,0.674-0.788s0.652-0.29,1.055-0.29
		c0.414,0,0.77,0.101,1.066,0.302s0.512,0.487,0.645,0.858h0.023c0.168-0.363,0.421-0.647,0.759-0.853s0.722-0.308,1.151-0.308
		c0.602,0,1.083,0.181,1.444,0.542s0.542,0.845,0.542,1.45V47h-1.02v-3.973c0-0.418-0.11-0.743-0.331-0.976
		s-0.532-0.349-0.935-0.349s-0.732,0.134-0.99,0.401s-0.387,0.608-0.387,1.022V47h-1.02v-4.084c0-0.367-0.113-0.661-0.34-0.882
		s-0.529-0.331-0.908-0.331c-0.402,0-0.735,0.141-0.999,0.422s-0.396,0.633-0.396,1.055V47H186.203z"/>
	<path fill="#8F8F8E" d="M75.443,61.505c-0.605,0-1.095-0.168-1.468-0.504s-0.56-0.777-0.56-1.324c0-0.523,0.192-0.941,0.577-1.254
		s0.929-0.488,1.632-0.527l1.746-0.1v-0.51c0-0.371-0.117-0.662-0.352-0.873s-0.563-0.316-0.984-0.316
		c-0.387,0-0.701,0.085-0.943,0.255s-0.396,0.407-0.463,0.712h-0.984c0.035-0.543,0.271-0.989,0.706-1.339s1.005-0.524,1.708-0.524
		c0.715,0,1.282,0.18,1.702,0.539s0.63,0.842,0.63,1.447V61.4h-0.967v-1.049H77.4c-0.184,0.348-0.453,0.627-0.809,0.838
		S75.854,61.505,75.443,61.505z M75.672,60.638c0.48,0,0.884-0.149,1.21-0.448s0.489-0.667,0.489-1.104v-0.498l-1.629,0.1
		c-0.41,0.027-0.728,0.127-0.952,0.299s-0.337,0.402-0.337,0.691s0.111,0.521,0.334,0.697S75.305,60.638,75.672,60.638z"/>
	<path fill="#8F8F8E" d="M85.105,55.201c0.781,0,1.411,0.287,1.89,0.861s0.718,1.338,0.718,2.291c0,0.949-0.238,1.712-0.715,2.288
		s-1.1,0.864-1.869,0.864c-0.43,0-0.814-0.098-1.154-0.293s-0.602-0.463-0.785-0.803h-0.023v3.023h-1.02v-8.127h0.967v1.031h0.023
		c0.191-0.352,0.459-0.629,0.803-0.832S84.672,55.201,85.105,55.201z M84.906,60.609c0.543,0,0.973-0.203,1.289-0.609
		s0.475-0.955,0.475-1.646s-0.158-1.24-0.475-1.646s-0.746-0.609-1.289-0.609c-0.523,0-0.945,0.207-1.266,0.621
		s-0.48,0.959-0.48,1.635c0,0.68,0.16,1.226,0.48,1.638S84.383,60.609,84.906,60.609z"/>
	<path fill="#8F8F8E" d="M90.52,61.505c-0.605,0-1.095-0.168-1.468-0.504s-0.56-0.777-0.56-1.324c0-0.523,0.192-0.941,0.577-1.254
		s0.929-0.488,1.632-0.527l1.746-0.1v-0.51c0-0.371-0.117-0.662-0.352-0.873s-0.563-0.316-0.984-0.316
		c-0.387,0-0.701,0.085-0.943,0.255s-0.396,0.407-0.463,0.712h-0.984c0.035-0.543,0.271-0.989,0.706-1.339s1.005-0.524,1.708-0.524
		c0.715,0,1.282,0.18,1.702,0.539s0.63,0.842,0.63,1.447V61.4H92.5v-1.049h-0.023c-0.184,0.348-0.453,0.627-0.809,0.838
		S90.93,61.505,90.52,61.505z M90.748,60.638c0.48,0,0.884-0.149,1.21-0.448s0.489-0.667,0.489-1.104v-0.498l-1.629,0.1
		c-0.41,0.027-0.728,0.127-0.952,0.299s-0.337,0.402-0.337,0.691s0.111,0.521,0.334,0.697S90.381,60.638,90.748,60.638z"/>
	<path fill="#8F8F8E" d="M94.762,61.4v-6.094h0.961v0.996h0.023c0.102-0.34,0.284-0.608,0.548-0.806s0.573-0.296,0.929-0.296
		c0.082,0,0.219,0.014,0.41,0.041v0.99c-0.109-0.039-0.291-0.059-0.545-0.059c-0.395,0-0.711,0.131-0.949,0.393
		s-0.357,0.607-0.357,1.037V61.4H94.762z"/>
	<path fill="#8F8F8E" d="M98.787,53.835h1.02v1.471h1.184v0.838h-1.184v3.621c0,0.277,0.061,0.481,0.182,0.612
		s0.313,0.196,0.574,0.196c0.164,0,0.305-0.01,0.422-0.029V61.4c-0.133,0.031-0.348,0.047-0.645,0.047
		c-0.559,0-0.957-0.125-1.195-0.375s-0.357-0.668-0.357-1.254v-3.674h-0.908v-0.838h0.908V53.835z"/>
	<path fill="#8F8F8E" d="M102.637,54.281c-0.172,0-0.32-0.063-0.445-0.188s-0.188-0.273-0.188-0.445
		c0-0.176,0.063-0.325,0.188-0.448s0.273-0.185,0.445-0.185c0.176,0,0.326,0.062,0.451,0.185s0.188,0.272,0.188,0.448
		c0,0.172-0.063,0.32-0.188,0.445S102.813,54.281,102.637,54.281z M102.127,61.4v-6.094h1.02V61.4H102.127z"/>
	<path fill="#8F8F8E" d="M109.586,57.304h-0.996c-0.078-0.352-0.251-0.641-0.519-0.867s-0.614-0.34-1.04-0.34
		c-0.531,0-0.959,0.204-1.283,0.612s-0.486,0.956-0.486,1.644c0,0.699,0.163,1.25,0.489,1.652s0.757,0.604,1.292,0.604
		c0.41,0,0.749-0.103,1.017-0.308s0.446-0.493,0.536-0.864h1.002c-0.078,0.609-0.353,1.106-0.823,1.491s-1.05,0.577-1.737,0.577
		c-0.852,0-1.533-0.282-2.045-0.847s-0.768-1.333-0.768-2.306c0-0.957,0.256-1.722,0.768-2.294s1.189-0.858,2.033-0.858
		c0.727,0,1.317,0.205,1.772,0.615S109.516,56.722,109.586,57.304z"/>
	<path fill="#8F8F8E" d="M115.539,55.306V61.4h-0.967v-0.99h-0.023c-0.379,0.73-1.023,1.096-1.934,1.096
		c-0.66,0-1.177-0.2-1.55-0.601s-0.56-0.948-0.56-1.644v-3.955h1.02v3.773c0,1.016,0.469,1.523,1.406,1.523
		c0.492,0,0.88-0.155,1.163-0.466s0.425-0.728,0.425-1.251v-3.58H115.539z"/>
	<path fill="#8F8F8E" d="M116.91,61.4v-8.455h1.02V61.4H116.91z"/>
	<path fill="#8F8F8E" d="M121.088,61.505c-0.605,0-1.095-0.168-1.468-0.504s-0.56-0.777-0.56-1.324c0-0.523,0.192-0.941,0.577-1.254
		s0.929-0.488,1.632-0.527l1.746-0.1v-0.51c0-0.371-0.117-0.662-0.352-0.873s-0.563-0.316-0.984-0.316
		c-0.387,0-0.701,0.085-0.943,0.255s-0.396,0.407-0.463,0.712h-0.984c0.035-0.543,0.271-0.989,0.706-1.339s1.005-0.524,1.708-0.524
		c0.715,0,1.282,0.18,1.702,0.539s0.63,0.842,0.63,1.447V61.4h-0.967v-1.049h-0.023c-0.184,0.348-0.453,0.627-0.809,0.838
		S121.498,61.505,121.088,61.505z M121.316,60.638c0.48,0,0.884-0.149,1.21-0.448s0.489-0.667,0.489-1.104v-0.498l-1.629,0.1
		c-0.41,0.027-0.728,0.127-0.952,0.299s-0.337,0.402-0.337,0.691s0.111,0.521,0.334,0.697S120.949,60.638,121.316,60.638z"/>
	<path fill="#8F8F8E" d="M125.33,61.4v-6.094h0.961v0.996h0.023c0.102-0.34,0.284-0.608,0.548-0.806s0.573-0.296,0.929-0.296
		c0.082,0,0.219,0.014,0.41,0.041v0.99c-0.109-0.039-0.291-0.059-0.545-0.059c-0.395,0-0.711,0.131-0.949,0.393
		s-0.357,0.607-0.357,1.037V61.4H125.33z"/>
	<path fill="#8F8F8E" d="M131.383,56.988c0-0.523,0.212-0.952,0.636-1.286s0.97-0.501,1.638-0.501c0.629,0,1.152,0.168,1.57,0.504
		s0.639,0.762,0.662,1.277h-0.973c-0.035-0.297-0.167-0.529-0.396-0.697s-0.528-0.252-0.899-0.252s-0.67,0.083-0.896,0.249
		s-0.34,0.384-0.34,0.653c0,0.414,0.338,0.707,1.014,0.879l0.943,0.229c0.613,0.156,1.046,0.358,1.298,0.606
		s0.378,0.597,0.378,1.046c0,0.531-0.227,0.966-0.68,1.304s-1.035,0.507-1.746,0.507c-0.664,0-1.212-0.165-1.644-0.495
		s-0.675-0.767-0.729-1.31h1.02c0.113,0.648,0.586,0.973,1.418,0.973c0.41,0,0.735-0.081,0.976-0.243s0.36-0.382,0.36-0.659
		c0-0.219-0.071-0.393-0.214-0.521s-0.384-0.238-0.724-0.328l-1.072-0.275C131.916,58.373,131.383,57.82,131.383,56.988z"/>
	<path fill="#8F8F8E" d="M141.115,59.654h1.002c-0.09,0.539-0.37,0.982-0.841,1.33s-1.036,0.521-1.696,0.521
		c-0.871,0-1.557-0.281-2.057-0.844s-0.75-1.324-0.75-2.285c0-0.953,0.251-1.721,0.753-2.303s1.171-0.873,2.007-0.873
		c0.82,0,1.469,0.275,1.945,0.826s0.715,1.289,0.715,2.215v0.387h-4.371v0.059c0,0.586,0.16,1.055,0.48,1.406
		s0.754,0.527,1.301,0.527c0.383,0,0.709-0.088,0.979-0.264S141.029,59.947,141.115,59.654z M139.516,56.085
		c-0.473,0-0.864,0.163-1.175,0.489s-0.481,0.745-0.513,1.257h3.311c-0.012-0.516-0.166-0.936-0.463-1.26
		S139.992,56.085,139.516,56.085z"/>
	<path fill="#8F8F8E" d="M143.219,61.4v-6.094h0.961v0.973h0.023c0.176-0.34,0.428-0.604,0.756-0.794s0.721-0.284,1.178-0.284
		c0.664,0,1.182,0.2,1.553,0.601s0.557,0.948,0.557,1.644V61.4h-1.02v-3.773c0-0.496-0.117-0.874-0.352-1.134
		s-0.584-0.39-1.049-0.39c-0.48,0-0.865,0.156-1.154,0.469s-0.434,0.727-0.434,1.242V61.4H143.219z"/>
	<path fill="#8F8F8E" d="M151.85,61.505c-0.781,0-1.411-0.287-1.89-0.861s-0.718-1.338-0.718-2.291c0-0.949,0.238-1.712,0.715-2.288
		s1.1-0.864,1.869-0.864c0.43,0,0.814,0.098,1.154,0.293s0.602,0.463,0.785,0.803h0.023v-3.352h1.02V61.4h-0.973v-1.031h-0.018
		c-0.199,0.355-0.469,0.634-0.809,0.835S152.283,61.505,151.85,61.505z M152.043,56.097c-0.539,0-0.967,0.204-1.283,0.612
		s-0.475,0.956-0.475,1.644c0,0.691,0.158,1.24,0.475,1.646s0.744,0.609,1.283,0.609c0.527,0,0.951-0.206,1.271-0.618
		s0.48-0.958,0.48-1.638s-0.161-1.226-0.483-1.638S152.566,56.097,152.043,56.097z"/>
	<path fill="#8F8F8E" d="M160.229,59.654h1.002c-0.09,0.539-0.37,0.982-0.841,1.33s-1.036,0.521-1.696,0.521
		c-0.871,0-1.557-0.281-2.057-0.844s-0.75-1.324-0.75-2.285c0-0.953,0.251-1.721,0.753-2.303s1.171-0.873,2.007-0.873
		c0.82,0,1.469,0.275,1.945,0.826s0.715,1.289,0.715,2.215v0.387h-4.371v0.059c0,0.586,0.16,1.055,0.48,1.406
		s0.754,0.527,1.301,0.527c0.383,0,0.709-0.088,0.979-0.264S160.143,59.947,160.229,59.654z M158.629,56.085
		c-0.473,0-0.864,0.163-1.175,0.489s-0.481,0.745-0.513,1.257h3.311c-0.012-0.516-0.166-0.936-0.463-1.26
		S159.105,56.085,158.629,56.085z"/>
	<path fill="#8F8F8E" d="M162.332,61.4v-6.094h0.961v0.996h0.023c0.102-0.34,0.284-0.608,0.548-0.806s0.573-0.296,0.929-0.296
		c0.082,0,0.219,0.014,0.41,0.041v0.99c-0.109-0.039-0.291-0.059-0.545-0.059c-0.395,0-0.711,0.131-0.949,0.393
		s-0.357,0.607-0.357,1.037V61.4H162.332z"/>
</g>
</svg>
