<?xml version="1.0" encoding="utf-8"?>
<!-- Generator: Adobe Illustrator 17.0.0, SVG Export Plug-In . SVG Version: 6.00 Build 0)  -->
<!DOCTYPE svg PUBLIC "-//W3C//DTD SVG 1.1//EN" "http://www.w3.org/Graphics/SVG/1.1/DTD/svg11.dtd">
<svg version="1.1" id="Layer_1" xmlns="http://www.w3.org/2000/svg" xmlns:xlink="http://www.w3.org/1999/xlink" x="0px" y="0px"
	 width="30px" height="30px" viewBox="0 0 30 30" enable-background="new 0 0 30 30" xml:space="preserve">
<circle fill="none" stroke="#606161" stroke-width="1.5" stroke-miterlimit="10" cx="15.057" cy="14.856" r="13.35"/>
<g>
	<path fill="#606161" d="M10.596,10.69c0.064-1.209,0.494-2.197,1.289-2.965c0.795-0.767,1.907-1.151,3.336-1.151
		c1.322,0,2.402,0.364,3.24,1.093c0.838,0.728,1.258,1.644,1.258,2.747c0,1.548-0.739,2.768-2.218,3.659
		c-0.664,0.396-1.118,0.771-1.362,1.125s-0.366,0.813-0.366,1.379v0.689h-1.856v-0.976c-0.007-0.693,0.161-1.294,0.504-1.804
		c0.343-0.509,0.882-0.982,1.618-1.421c0.622-0.382,1.062-0.764,1.32-1.146c0.258-0.382,0.387-0.852,0.387-1.411
		c0-0.665-0.238-1.21-0.716-1.639c-0.478-0.428-1.105-0.642-1.882-0.642c-0.799,0-1.441,0.219-1.925,0.658s-0.755,1.04-0.812,1.803
		H10.596z M14.85,22.104c-0.339,0-0.625-0.117-0.859-0.351s-0.35-0.52-0.35-0.859c0-0.346,0.117-0.634,0.35-0.864
		c0.233-0.229,0.52-0.345,0.859-0.345c0.347,0,0.635,0.115,0.865,0.345c0.229,0.23,0.344,0.519,0.344,0.864
		c0,0.34-0.115,0.626-0.344,0.859C15.484,21.986,15.196,22.104,14.85,22.104z"/>
</g>
</svg>
