<?xml version="1.0" encoding="utf-8"?>
<!-- Generator: Adobe Illustrator 17.0.0, SVG Export Plug-In . SVG Version: 6.00 Build 0)  -->
<!DOCTYPE svg PUBLIC "-//W3C//DTD SVG 1.1//EN" "http://www.w3.org/Graphics/SVG/1.1/DTD/svg11.dtd">
<svg version="1.1" id="Layer_1" xmlns="http://www.w3.org/2000/svg" xmlns:xlink="http://www.w3.org/1999/xlink" x="0px" y="0px"
	 width="500px" height="450px" viewBox="0 0 500 450" enable-background="new 0 0 500 450" xml:space="preserve">
<rect fill="#FFFFFF" width="500" height="450"/>
<g>
	<circle fill="#F8C463" stroke="#FFFFFF" stroke-width="4" stroke-miterlimit="10" cx="138.252" cy="364.75" r="9.25"/>
	<circle fill="#86CFC1" stroke="#FFFFFF" stroke-width="4" stroke-miterlimit="10" cx="252.006" cy="364.75" r="9.25"/>
	<circle fill="#6F6CB1" stroke="#FFFFFF" stroke-width="4" stroke-miterlimit="10" cx="365.588" cy="364.75" r="9.25"/>
	<g>
		<path fill="#8F8F8E" d="M222.19,380.817v8.13c0,0.979,0.306,1.774,0.918,2.387s1.458,0.918,2.536,0.918s1.923-0.306,2.536-0.918
			c0.611-0.612,0.918-1.408,0.918-2.387v-8.13h1.582v8.235c0,1.377-0.453,2.498-1.357,3.361c-0.906,0.865-2.132,1.297-3.679,1.297
			s-2.772-0.432-3.679-1.297c-0.904-0.863-1.357-1.984-1.357-3.361v-8.235H222.19z"/>
		<path fill="#8F8F8E" d="M237.342,384.201c1.172,0,2.116,0.431,2.834,1.292s1.077,2.007,1.077,3.437
			c0,1.424-0.357,2.568-1.072,3.432c-0.715,0.865-1.649,1.297-2.804,1.297c-0.645,0-1.222-0.146-1.731-0.439
			s-0.902-0.694-1.178-1.204h-0.035v4.535h-1.529v-12.19h1.45v1.547h0.035c0.287-0.527,0.688-0.943,1.204-1.248
			S236.692,384.201,237.342,384.201z M237.043,392.313c0.814,0,1.459-0.305,1.934-0.914s0.712-1.433,0.712-2.47
			s-0.237-1.86-0.712-2.47s-1.119-0.914-1.934-0.914c-0.785,0-1.418,0.311-1.898,0.932s-0.721,1.438-0.721,2.452
			c0,1.02,0.24,1.839,0.721,2.457S236.258,392.313,237.043,392.313z"/>
		<path fill="#8F8F8E" d="M246.254,393.658c-1.172,0-2.117-0.431-2.834-1.292c-0.719-0.861-1.077-2.007-1.077-3.437
			c0-1.424,0.357-2.567,1.072-3.432c0.715-0.865,1.649-1.297,2.804-1.297c0.645,0,1.222,0.146,1.731,0.439s0.902,0.694,1.178,1.204
			h0.035v-5.027h1.529V393.5h-1.459v-1.547h-0.026c-0.299,0.533-0.703,0.951-1.213,1.252
			C247.485,393.507,246.905,393.658,246.254,393.658z M246.544,385.546c-0.809,0-1.45,0.307-1.925,0.919s-0.712,1.434-0.712,2.465
			c0,1.037,0.237,1.86,0.712,2.47s1.116,0.914,1.925,0.914c0.791,0,1.427-0.309,1.907-0.927s0.721-1.438,0.721-2.457
			s-0.242-1.838-0.725-2.457C247.963,385.855,247.33,385.546,246.544,385.546z"/>
		<path fill="#8F8F8E" d="M255.43,393.658c-0.908,0-1.643-0.252-2.201-0.756c-0.561-0.504-0.84-1.166-0.84-1.986
			c0-0.785,0.288-1.412,0.865-1.881s1.394-0.732,2.448-0.791l2.619-0.149v-0.765c0-0.557-0.176-0.993-0.527-1.31
			s-0.844-0.475-1.477-0.475c-0.58,0-1.052,0.128-1.415,0.382c-0.363,0.256-0.595,0.611-0.694,1.068h-1.477
			c0.053-0.814,0.405-1.483,1.06-2.008c0.652-0.525,1.507-0.787,2.562-0.787c1.072,0,1.923,0.27,2.554,0.809
			c0.629,0.539,0.944,1.263,0.944,2.171v6.319h-1.45v-1.573h-0.035c-0.275,0.521-0.68,0.94-1.213,1.257
			S256.045,393.658,255.43,393.658z M255.772,392.357c0.721,0,1.325-0.225,1.815-0.672c0.488-0.449,0.733-1.001,0.733-1.657v-0.747
			l-2.443,0.149c-0.615,0.041-1.092,0.19-1.429,0.448s-0.505,0.604-0.505,1.037s0.167,0.782,0.501,1.046
			S255.222,392.357,255.772,392.357z"/>
		<path fill="#8F8F8E" d="M262.285,382.153h1.529v2.206h1.775v1.257h-1.775v5.432c0,0.416,0.091,0.723,0.272,0.919
			s0.469,0.294,0.861,0.294c0.246,0,0.457-0.015,0.633-0.044v1.283c-0.199,0.047-0.521,0.07-0.967,0.07
			c-0.838,0-1.436-0.188-1.793-0.563s-0.536-1.002-0.536-1.881v-5.511h-1.362v-1.257h1.362V382.153z"/>
		<path fill="#8F8F8E" d="M273.017,390.881h1.503c-0.135,0.809-0.556,1.474-1.262,1.995s-1.554,0.782-2.544,0.782
			c-1.307,0-2.335-0.422-3.085-1.266s-1.125-1.986-1.125-3.428c0-1.43,0.376-2.581,1.129-3.454s1.757-1.31,3.011-1.31
			c1.23,0,2.203,0.413,2.918,1.239s1.072,1.934,1.072,3.322v0.58h-6.557v0.088c0,0.879,0.24,1.582,0.721,2.109
			s1.131,0.791,1.951,0.791c0.574,0,1.063-0.132,1.468-0.396S272.888,391.32,273.017,390.881z M270.617,385.528
			c-0.709,0-1.297,0.245-1.762,0.733c-0.467,0.49-0.723,1.118-0.77,1.886h4.966c-0.018-0.773-0.249-1.403-0.694-1.89
			S271.332,385.528,270.617,385.528z"/>
		<path fill="#8F8F8E" d="M276.014,386.882c0-0.785,0.317-1.429,0.953-1.929c0.636-0.502,1.455-0.752,2.457-0.752
			c0.943,0,1.729,0.252,2.355,0.756s0.958,1.143,0.993,1.916h-1.459c-0.053-0.445-0.251-0.794-0.593-1.046
			c-0.344-0.252-0.793-0.378-1.35-0.378s-1.005,0.125-1.345,0.373c-0.34,0.25-0.51,0.576-0.51,0.98c0,0.621,0.507,1.061,1.521,1.318
			l1.415,0.343c0.92,0.234,1.569,0.538,1.946,0.909c0.379,0.373,0.567,0.896,0.567,1.569c0,0.797-0.34,1.449-1.02,1.956
			s-1.553,0.76-2.619,0.76c-0.996,0-1.818-0.247-2.466-0.742s-1.012-1.15-1.094-1.965h1.529c0.17,0.973,0.879,1.459,2.127,1.459
			c0.615,0,1.104-0.121,1.463-0.365c0.361-0.242,0.541-0.572,0.541-0.988c0-0.328-0.107-0.589-0.32-0.782
			c-0.215-0.193-0.576-0.357-1.086-0.492l-1.608-0.413C276.813,388.959,276.014,388.13,276.014,386.882z"/>
	</g>
	<g>
		<path fill="#8F8F8E" d="M323.197,380.817h4.526c1.189,0,2.163,0.38,2.923,1.138c0.758,0.76,1.138,1.736,1.138,2.932
			c0,1.201-0.381,2.183-1.143,2.944s-1.74,1.143-2.936,1.143h-2.927v4.526h-1.582V380.817z M324.779,382.224v5.344h2.531
			c0.902,0,1.603-0.235,2.101-0.708c0.498-0.471,0.747-1.129,0.747-1.973s-0.248-1.498-0.742-1.965
			c-0.496-0.465-1.197-0.698-2.105-0.698H324.779z"/>
		<path fill="#8F8F8E" d="M333.357,393.5v-9.141h1.441v1.494h0.035c0.152-0.51,0.426-0.912,0.822-1.209
			c0.395-0.295,0.859-0.443,1.393-0.443c0.123,0,0.328,0.021,0.615,0.062v1.485c-0.164-0.059-0.437-0.088-0.817-0.088
			c-0.592,0-1.066,0.196-1.424,0.589s-0.536,0.911-0.536,1.556v5.695H333.357z"/>
		<path fill="#8F8F8E" d="M342.252,393.658c-1.277,0-2.303-0.426-3.076-1.279c-0.773-0.852-1.16-2.002-1.16-3.449
			s0.387-2.598,1.16-3.449c0.773-0.854,1.799-1.279,3.076-1.279c1.271,0,2.294,0.426,3.067,1.279c0.773,0.852,1.16,2.002,1.16,3.449
			c0,1.441-0.387,2.59-1.16,3.445S343.523,393.658,342.252,393.658z M340.297,391.417c0.482,0.598,1.135,0.896,1.955,0.896
			s1.471-0.297,1.951-0.892s0.721-1.426,0.721-2.492s-0.24-1.896-0.721-2.492c-0.48-0.594-1.131-0.892-1.951-0.892
			s-1.473,0.299-1.955,0.896c-0.484,0.598-0.726,1.427-0.726,2.487S339.813,390.819,340.297,391.417z"/>
		<path fill="#8F8F8E" d="M348.018,393.5v-9.141h1.441v1.459h0.035c0.223-0.498,0.56-0.893,1.011-1.182
			c0.451-0.291,0.979-0.436,1.582-0.436c0.621,0,1.154,0.15,1.6,0.453c0.445,0.301,0.768,0.73,0.967,1.287h0.035
			c0.252-0.545,0.631-0.971,1.138-1.279c0.507-0.307,1.083-0.461,1.728-0.461c0.902,0,1.624,0.271,2.167,0.813
			c0.541,0.543,0.813,1.268,0.813,2.176v6.311h-1.529v-5.959c0-0.627-0.166-1.114-0.496-1.463c-0.332-0.349-0.799-0.523-1.402-0.523
			s-1.099,0.201-1.485,0.602c-0.387,0.402-0.58,0.913-0.58,1.534v5.81h-1.529v-6.126c0-0.551-0.17-0.991-0.51-1.323
			c-0.34-0.33-0.794-0.496-1.362-0.496c-0.604,0-1.104,0.211-1.498,0.633c-0.396,0.422-0.594,0.949-0.594,1.582v5.73H348.018z"/>
		<path fill="#8F8F8E" d="M366.264,393.658c-1.277,0-2.303-0.426-3.076-1.279c-0.773-0.852-1.16-2.002-1.16-3.449
			s0.387-2.598,1.16-3.449c0.773-0.854,1.799-1.279,3.076-1.279c1.271,0,2.294,0.426,3.067,1.279c0.773,0.852,1.16,2.002,1.16,3.449
			c0,1.441-0.387,2.59-1.16,3.445S367.535,393.658,366.264,393.658z M364.309,391.417c0.482,0.598,1.135,0.896,1.955,0.896
			s1.471-0.297,1.951-0.892s0.721-1.426,0.721-2.492s-0.24-1.896-0.721-2.492c-0.48-0.594-1.131-0.892-1.951-0.892
			s-1.473,0.299-1.955,0.896c-0.484,0.598-0.726,1.427-0.726,2.487S363.824,390.819,364.309,391.417z"/>
		<path fill="#8F8F8E" d="M372.521,382.153h1.529v2.206h1.775v1.257h-1.775v5.432c0,0.416,0.091,0.723,0.272,0.919
			s0.469,0.294,0.861,0.294c0.246,0,0.457-0.015,0.633-0.044v1.283c-0.199,0.047-0.521,0.07-0.967,0.07
			c-0.838,0-1.436-0.188-1.793-0.563s-0.536-1.002-0.536-1.881v-5.511h-1.362v-1.257h1.362V382.153z"/>
		<path fill="#8F8F8E" d="M378.296,382.821c-0.258,0-0.48-0.094-0.668-0.281s-0.281-0.41-0.281-0.668
			c0-0.264,0.094-0.487,0.281-0.673c0.188-0.184,0.41-0.276,0.668-0.276c0.264,0,0.489,0.093,0.677,0.276
			c0.188,0.186,0.281,0.409,0.281,0.673c0,0.258-0.094,0.48-0.281,0.668S378.56,382.821,378.296,382.821z M377.531,393.5v-9.141
			h1.529v9.141H377.531z"/>
		<path fill="#8F8F8E" d="M384.914,393.658c-1.277,0-2.303-0.426-3.076-1.279c-0.773-0.852-1.16-2.002-1.16-3.449
			s0.387-2.598,1.16-3.449c0.773-0.854,1.799-1.279,3.076-1.279c1.271,0,2.294,0.426,3.067,1.279c0.773,0.852,1.16,2.002,1.16,3.449
			c0,1.441-0.387,2.59-1.16,3.445S386.186,393.658,384.914,393.658z M382.959,391.417c0.482,0.598,1.135,0.896,1.955,0.896
			s1.471-0.297,1.951-0.892s0.721-1.426,0.721-2.492s-0.24-1.896-0.721-2.492c-0.48-0.594-1.131-0.892-1.951-0.892
			s-1.473,0.299-1.955,0.896c-0.484,0.598-0.726,1.427-0.726,2.487S382.475,390.819,382.959,391.417z"/>
		<path fill="#8F8F8E" d="M390.68,393.5v-9.141h1.441v1.459h0.035c0.264-0.51,0.642-0.906,1.134-1.191
			c0.492-0.283,1.081-0.426,1.767-0.426c0.996,0,1.772,0.301,2.329,0.9c0.557,0.602,0.835,1.423,0.835,2.466v5.933h-1.529v-5.66
			c0-0.744-0.176-1.311-0.527-1.701c-0.352-0.389-0.876-0.584-1.573-0.584c-0.721,0-1.298,0.234-1.731,0.703s-0.65,1.09-0.65,1.863
			v5.379H390.68z"/>
		<path fill="#8F8F8E" d="M400.005,386.882c0-0.785,0.317-1.429,0.954-1.929c0.635-0.502,1.454-0.752,2.456-0.752
			c0.943,0,1.729,0.252,2.355,0.756s0.958,1.143,0.993,1.916h-1.459c-0.053-0.445-0.25-0.794-0.594-1.046
			c-0.342-0.252-0.792-0.378-1.349-0.378s-1.005,0.125-1.345,0.373c-0.34,0.25-0.51,0.576-0.51,0.98
			c0,0.621,0.507,1.061,1.521,1.318l1.415,0.343c0.92,0.234,1.568,0.538,1.947,0.909c0.377,0.373,0.566,0.896,0.566,1.569
			c0,0.797-0.34,1.449-1.02,1.956s-1.553,0.76-2.619,0.76c-0.996,0-1.818-0.247-2.465-0.742c-0.648-0.495-1.013-1.15-1.095-1.965
			h1.529c0.17,0.973,0.879,1.459,2.127,1.459c0.615,0,1.103-0.121,1.464-0.365c0.359-0.242,0.54-0.572,0.54-0.988
			c0-0.328-0.107-0.589-0.321-0.782s-0.575-0.357-1.085-0.492l-1.608-0.413C400.805,388.959,400.005,388.13,400.005,386.882z"/>
	</g>
	<g>
		<path fill="#8F8F8E" d="M116.078,390.011h1.591c0.076,0.686,0.411,1.236,1.006,1.652s1.347,0.624,2.255,0.624
			c0.855,0,1.563-0.203,2.122-0.611c0.56-0.406,0.84-0.921,0.84-1.542c0-0.533-0.195-0.973-0.584-1.318
			c-0.391-0.346-1.013-0.63-1.868-0.853l-1.626-0.422c-1.172-0.299-2.027-0.717-2.566-1.252c-0.539-0.537-0.809-1.235-0.809-2.097
			c0-1.055,0.418-1.916,1.252-2.584c0.836-0.668,1.912-1.002,3.23-1.002c1.26,0,2.303,0.339,3.129,1.016s1.257,1.545,1.292,2.605
			h-1.582c-0.07-0.68-0.363-1.216-0.879-1.608s-1.187-0.589-2.013-0.589c-0.82,0-1.49,0.193-2.008,0.58
			c-0.52,0.387-0.778,0.891-0.778,1.512c0,0.48,0.188,0.875,0.567,1.183c0.377,0.307,0.997,0.572,1.858,0.795l1.327,0.352
			c1.313,0.328,2.256,0.765,2.83,1.31s0.861,1.271,0.861,2.18c0,1.16-0.426,2.079-1.279,2.755c-0.852,0.678-2.008,1.016-3.467,1.016
			c-1.348,0-2.449-0.337-3.305-1.011S116.154,391.13,116.078,390.011z"/>
		<path fill="#8F8F8E" d="M130.923,393.658c-1.277,0-2.303-0.426-3.076-1.279c-0.773-0.852-1.16-2.002-1.16-3.449
			s0.387-2.598,1.16-3.449c0.773-0.853,1.799-1.279,3.076-1.279c1.271,0,2.294,0.427,3.067,1.279c0.773,0.852,1.16,2.002,1.16,3.449
			c0,1.441-0.387,2.59-1.16,3.445S132.194,393.658,130.923,393.658z M128.968,391.417c0.482,0.598,1.135,0.896,1.955,0.896
			s1.471-0.297,1.951-0.892s0.721-1.426,0.721-2.492s-0.24-1.896-0.721-2.492c-0.48-0.594-1.131-0.892-1.951-0.892
			s-1.473,0.299-1.955,0.896c-0.484,0.598-0.726,1.427-0.726,2.487S128.483,390.819,128.968,391.417z"/>
		<path fill="#8F8F8E" d="M144.282,387.356h-1.494c-0.117-0.527-0.377-0.961-0.777-1.301c-0.402-0.34-0.922-0.51-1.561-0.51
			c-0.797,0-1.438,0.307-1.925,0.919s-0.729,1.434-0.729,2.465c0,1.049,0.244,1.875,0.734,2.479
			c0.488,0.604,1.135,0.905,1.938,0.905c0.615,0,1.123-0.153,1.525-0.462c0.4-0.307,0.669-0.739,0.804-1.296h1.503
			c-0.117,0.914-0.529,1.66-1.234,2.237c-0.707,0.577-1.575,0.865-2.606,0.865c-1.277,0-2.3-0.423-3.067-1.27s-1.151-2-1.151-3.459
			c0-1.436,0.384-2.582,1.151-3.44s1.784-1.288,3.05-1.288c1.09,0,1.976,0.308,2.659,0.923
			C143.782,385.739,144.177,386.483,144.282,387.356z"/>
		<path fill="#8F8F8E" d="M146.55,382.821c-0.258,0-0.48-0.094-0.668-0.281s-0.281-0.41-0.281-0.668
			c0-0.264,0.094-0.487,0.281-0.672s0.41-0.277,0.668-0.277c0.264,0,0.489,0.093,0.677,0.277s0.281,0.408,0.281,0.672
			c0,0.258-0.094,0.48-0.281,0.668S146.813,382.821,146.55,382.821z M145.785,393.5v-9.141h1.529v9.141H145.785z"/>
		<path fill="#8F8F8E" d="M152.052,393.658c-0.908,0-1.643-0.252-2.201-0.756c-0.561-0.504-0.84-1.166-0.84-1.986
			c0-0.785,0.288-1.412,0.865-1.881s1.394-0.732,2.448-0.791l2.619-0.149v-0.765c0-0.557-0.176-0.993-0.527-1.31
			s-0.844-0.475-1.477-0.475c-0.58,0-1.052,0.128-1.415,0.382c-0.363,0.256-0.595,0.611-0.694,1.068h-1.477
			c0.053-0.814,0.405-1.483,1.06-2.008c0.652-0.524,1.507-0.787,2.562-0.787c1.072,0,1.923,0.27,2.554,0.809
			c0.629,0.539,0.944,1.263,0.944,2.171v6.319h-1.45v-1.573h-0.035c-0.275,0.521-0.68,0.94-1.213,1.257
			S152.667,393.658,152.052,393.658z M152.395,392.357c0.721,0,1.325-0.225,1.815-0.672c0.488-0.449,0.733-1.001,0.733-1.657v-0.747
			l-2.443,0.149c-0.615,0.041-1.092,0.19-1.429,0.448s-0.505,0.604-0.505,1.037s0.167,0.782,0.501,1.046
			S151.844,392.357,152.395,392.357z"/>
		<path fill="#8F8F8E" d="M158.494,393.5v-12.683h1.529V393.5H158.494z"/>
	</g>
</g>
<circle fill="#CBCAE4" cx="76.775" cy="68.717" r="29.5"/>
<g>
	<path fill="none" stroke="#5658A6" stroke-width="2" stroke-miterlimit="10" d="M91.623,77.915c0,1.153-0.759,2.087-1.695,2.087
		H63.612c-0.936,0-1.695-0.934-1.695-2.087V60.621c0-1.153,0.759-2.087,1.695-2.087h26.316c0.936,0,1.695,0.934,1.695,2.087V77.915z
		"/>
	
		<line fill="none" stroke="#5658A6" stroke-width="2" stroke-linecap="round" stroke-linejoin="round" stroke-miterlimit="10" x1="62.248" y1="59.386" x2="76.77" y2="69.268"/>
	
		<line fill="none" stroke="#5658A6" stroke-width="2" stroke-linecap="round" stroke-linejoin="round" stroke-miterlimit="10" x1="77.012" y1="69.292" x2="91.139" y2="59.113"/>
</g>
<g>
	<path d="M122.125,56.928h-1.758V42.836h1.758V56.928z"/>
	<path d="M124.596,56.928V46.771h1.602v1.621h0.039c0.293-0.566,0.713-1.008,1.26-1.323s1.201-0.474,1.963-0.474
		c1.107,0,1.969,0.334,2.588,1.001s0.928,1.58,0.928,2.739v6.592h-1.699v-6.289c0-0.827-0.195-1.457-0.586-1.89
		s-0.973-0.649-1.748-0.649c-0.801,0-1.442,0.261-1.924,0.781s-0.723,1.211-0.723,2.07v5.977H124.596z"/>
	<path d="M140.182,57.104c-0.729,0-1.378-0.166-1.948-0.498s-1.021-0.798-1.353-1.396h-0.039v1.719h-1.621V42.836h1.699v5.635h0.039
		c0.319-0.586,0.763-1.045,1.333-1.377s1.209-0.498,1.919-0.498c1.283,0,2.318,0.479,3.105,1.436s1.182,2.229,1.182,3.818
		c0,1.595-0.394,2.869-1.182,3.823S141.484,57.104,140.182,57.104z M139.85,48.09c-0.866,0-1.572,0.347-2.119,1.04
		s-0.82,1.6-0.82,2.72c0,1.126,0.273,2.034,0.82,2.725s1.253,1.035,2.119,1.035c0.898,0,1.608-0.337,2.129-1.011
		s0.781-1.59,0.781-2.749c0-1.152-0.26-2.067-0.781-2.744S140.748,48.09,139.85,48.09z"/>
	<path d="M150.426,57.104c-1.419,0-2.559-0.474-3.418-1.421s-1.289-2.225-1.289-3.833s0.43-2.886,1.289-3.833
		s1.999-1.421,3.418-1.421c1.413,0,2.549,0.474,3.408,1.421s1.289,2.225,1.289,3.833c0,1.602-0.43,2.878-1.289,3.828
		S151.838,57.104,150.426,57.104z M148.253,54.613c0.537,0.664,1.261,0.996,2.173,0.996s1.634-0.33,2.168-0.991
		s0.801-1.584,0.801-2.769s-0.267-2.107-0.801-2.769s-1.256-0.991-2.168-0.991s-1.636,0.332-2.173,0.996s-0.806,1.585-0.806,2.764
		S147.716,53.949,148.253,54.613z"/>
	<path d="M160.23,53.061h-0.039l-2.451,3.867h-1.885l3.457-5.078l-3.398-5.078h1.895l2.441,3.809h0.039l2.412-3.809h1.895
		l-3.428,5.01l3.379,5.146h-1.885L160.23,53.061z"/>
</g>
</svg>
