<?xml version="1.0" encoding="utf-8"?>
<!-- Generator: Adobe Illustrator 17.0.0, SVG Export Plug-In . SVG Version: 6.00 Build 0)  -->
<!DOCTYPE svg PUBLIC "-//W3C//DTD SVG 1.1//EN" "http://www.w3.org/Graphics/SVG/1.1/DTD/svg11.dtd">
<svg version="1.1" id="Layer_1" xmlns="http://www.w3.org/2000/svg" xmlns:xlink="http://www.w3.org/1999/xlink" x="0px" y="0px"
	 width="30px" height="30px" viewBox="0 0 30 30" enable-background="new 0 0 30 30" xml:space="preserve">
<g>
	<path fill="none" stroke="#606161" stroke-width="1.5" stroke-miterlimit="10" d="M19.46,18.876c0,2.241-1.817,4.057-4.057,4.057
		s-4.057-1.817-4.057-4.057"/>
	
		<polyline fill="none" stroke="#606161" stroke-width="1.5" stroke-linecap="round" stroke-linejoin="round" stroke-miterlimit="10" points="
		19.46,18.876 22.936,18.876 27.75,18.876 	"/>
	
		<polyline fill="none" stroke="#606161" stroke-width="1.5" stroke-linecap="round" stroke-linejoin="round" stroke-miterlimit="10" points="
		11.345,18.876 7.469,18.876 5.125,18.876 2.653,18.876 	"/>
</g>
<path fill="none" stroke="#606161" stroke-width="1.5" stroke-miterlimit="10" d="M27.75,23.651c0,2.374-1.924,4.298-4.298,4.298
	H6.951c-2.374,0-4.298-1.924-4.298-4.298V6.802c0-2.374,1.924-4.298,4.298-4.298h16.501c2.374,0,4.298,1.924,4.298,4.298V23.651z"/>
</svg>
