<?xml version="1.0" encoding="utf-8"?>
<!-- Generator: Adobe Illustrator 17.0.0, SVG Export Plug-In . SVG Version: 6.00 Build 0)  -->
<!DOCTYPE svg PUBLIC "-//W3C//DTD SVG 1.1//EN" "http://www.w3.org/Graphics/SVG/1.1/DTD/svg11.dtd">
<svg version="1.1" id="Layer_1" xmlns="http://www.w3.org/2000/svg" xmlns:xlink="http://www.w3.org/1999/xlink" x="0px" y="0px"
	 width="30px" height="30px" viewBox="0 0 30 30" enable-background="new 0 0 30 30" xml:space="preserve">
<g>
	<g>
		<path fill="#606161" d="M9.61,9.957c0.026-1.005,0.842-1.917,1.837-2.061c1.119-0.162,1.913,0.762,1.582,1.844
			c-0.227,0.741-0.742,1.206-1.452,1.462c-0.908,0.329-1.84,0.289-2.762,0.09c-2.58-0.556-4.768-1.817-6.568-3.743
			C1.684,6.945,1.229,6.261,0.98,5.461c-0.262-0.842-0.234-1.65,0.363-2.357C1.819,2.541,2.469,2.31,3.177,2.219
			C4.12,2.098,5.039,2.242,5.941,2.504c1.863,0.542,3.511,1.479,4.966,2.758c0.109,0.095,0.199,0.113,0.333,0.071
			c0.95-0.296,1.9-0.59,2.853-0.872c1.348-0.399,2.552-0.128,3.588,0.824c0.401,0.368,0.772,0.768,1.157,1.153
			c2.988,2.988,5.975,5.978,8.965,8.964c1.848,1.845,1.861,4.845,0.018,6.698c-1.431,1.439-2.865,2.874-4.304,4.305
			c-1.559,1.55-4.034,1.803-5.883,0.616c-0.507-0.325-0.911-0.761-1.332-1.182c-3.176-3.175-6.356-6.344-9.524-9.527
			c-0.977-0.981-1.265-2.171-0.929-3.511c0.083-0.33,0.357-0.497,0.644-0.417c0.308,0.086,0.444,0.355,0.356,0.697
			c-0.247,0.951-0.033,1.787,0.655,2.489c0.717,0.732,1.449,1.45,2.171,2.177c0.593,0.597,1.177,1.201,1.771,1.797
			c0.454,0.455,0.918,0.898,1.374,1.35c0.536,0.532,1.068,1.068,1.602,1.602c0.757,0.757,1.513,1.516,2.273,2.271
			c0.395,0.393,0.766,0.819,1.203,1.159c1.526,1.189,3.545,1.062,4.924-0.297c1.428-1.407,2.841-2.829,4.257-4.249
			c0.55-0.552,0.903-1.216,1.024-1.987c0.21-1.331-0.21-2.448-1.162-3.391c-1.558-1.542-3.103-3.098-4.653-4.648
			c-1.749-1.749-3.497-3.501-5.249-5.248c-0.717-0.715-1.585-0.96-2.553-0.678c-1.861,0.542-3.712,1.122-5.567,1.686
			C8.726,7.172,8.605,7.295,8.545,7.494C8.3,8.308,8.05,9.12,7.786,9.985c0.628,0.144,1.251,0.286,1.874,0.428
			C9.638,10.225,9.607,10.091,9.61,9.957z M7.53,7.264c0.177-0.614,0.56-1,1.176-1.168C9.088,5.99,9.466,5.866,9.846,5.75
			c0.007-0.02,0.014-0.04,0.021-0.06C9.354,5.347,8.853,4.984,8.323,4.668C7.192,3.994,5.991,3.488,4.68,3.285
			C4.07,3.191,3.458,3.163,2.855,3.342C2.044,3.584,1.716,4.17,1.924,4.99C2.085,5.624,2.43,6.16,2.844,6.651
			c1.077,1.279,2.43,2.188,3.933,2.89C6.787,9.546,6.8,9.545,6.837,9.55C7.071,8.782,7.31,8.026,7.53,7.264z M11.904,9.717
			c0.071-0.106,0.119-0.234,0.152-0.359c0.072-0.271-0.123-0.478-0.408-0.446c-0.507,0.058-0.939,0.501-0.998,1.02
			c-0.016,0.141-0.042,0.281-0.067,0.444C11.095,10.301,11.589,10.187,11.904,9.717z"/>
		<path fill="#606161" d="M15.211,12.529c-0.167-1.534,1.039-2.741,2.572-2.574c1.422,0.156,2.775,1.504,2.944,2.934
			c0.166,1.404-0.903,2.599-2.304,2.577C16.888,15.441,15.378,14.061,15.211,12.529z M19.667,12.858
			c-0.24-0.904-0.821-1.521-1.716-1.811c-0.49-0.159-0.953-0.1-1.339,0.283c-0.388,0.385-0.454,0.844-0.317,1.352
			c0.25,0.927,1.262,1.751,2.15,1.751C19.282,14.432,19.885,13.68,19.667,12.858z"/>
		<path fill="#606161" d="M17.848,17.794c1.339,0.216,2.543,1.356,2.836,2.683c0.363,1.643-0.961,2.979-2.437,2.816
			c-1.415-0.156-2.635-1.253-2.978-2.635c-0.372-1.503,0.688-2.892,2.204-2.893C17.599,17.774,17.725,17.774,17.848,17.794z
			 M19.666,20.695c-0.259-0.969-0.895-1.619-1.879-1.852c-0.985-0.234-1.774,0.593-1.504,1.568c0.267,0.963,0.908,1.575,1.884,1.824
			c0.042,0.011,0.086,0.017,0.129,0.021c0.056,0.005,0.112,0.006,0.133,0.007C19.294,22.261,19.886,21.523,19.666,20.695z"/>
		<path fill="#606161" d="M22.499,18.095c0.314,0.002,0.53-0.182,0.564-0.444c0.035-0.267-0.126-0.502-0.403-0.573
			c-0.678-0.175-1.358-0.345-2.036-0.517c-2.28-0.577-4.559-1.155-6.839-1.732c-0.055-0.014-0.109-0.028-0.164-0.04
			c-0.316-0.073-0.589,0.081-0.658,0.37c-0.07,0.291,0.096,0.553,0.41,0.633c1.418,0.362,2.836,0.723,4.255,1.082
			c1.564,0.396,3.129,0.79,4.694,1.184C22.393,18.075,22.467,18.088,22.499,18.095z"/>
	</g>
</g>
</svg>
