<?xml version="1.0" encoding="utf-8"?>
<!-- Generator: Adobe Illustrator 17.0.0, SVG Export Plug-In . SVG Version: 6.00 Build 0)  -->
<!DOCTYPE svg PUBLIC "-//W3C//DTD SVG 1.1//EN" "http://www.w3.org/Graphics/SVG/1.1/DTD/svg11.dtd">
<svg version="1.1" id="Layer_1" xmlns="http://www.w3.org/2000/svg" xmlns:xlink="http://www.w3.org/1999/xlink" x="0px" y="0px"
	 width="30px" height="30px" viewBox="0 0 30 30" enable-background="new 0 0 30 30" xml:space="preserve">
<g>
	<path fill="#606161" d="M23.159,17.677c1.082,0.404,2.095,0.944,2.979,1.708c1.476,1.277,2.414,2.848,2.654,4.81
		c0.061,0.502-0.017,0.921-0.372,1.315c-0.93,1.031-2.095,1.682-3.397,2.068c-3.674,1.091-7.344,1.074-10.976-0.196
		c-1.086-0.38-2.044-0.992-2.832-1.859c-0.354-0.39-0.449-0.807-0.386-1.311c0.273-2.213,1.384-3.929,3.162-5.208
		c0.754-0.543,1.611-0.942,2.377-1.381c-0.203-0.567-0.569-1.184-0.622-1.826c-0.096-1.172-0.133-2.378,0.033-3.537
		c0.279-1.948,2.39-3.477,4.328-3.299c2.11,0.194,3.832,2.003,3.851,4.051c0.007,0.737,0.026,1.475-0.009,2.21
		c-0.02,0.427-0.092,0.864-0.224,1.27C23.594,16.896,23.359,17.268,23.159,17.677z M19.841,27.083
		c1.215-0.151,2.44-0.241,3.641-0.468c1.374-0.259,2.653-0.783,3.709-1.756c0.215-0.198,0.319-0.41,0.247-0.686
		c-0.145-0.556-0.234-1.141-0.472-1.656c-0.965-2.086-2.722-3.18-4.873-3.734c-0.142-0.037-0.334,0.034-0.479,0.104
		c-1.057,0.509-2.157,0.638-3.221,0.141c-0.623-0.291-1.152-0.235-1.726,0.002c-0.333,0.138-0.672,0.266-0.99,0.433
		c-1.868,0.981-3.127,2.427-3.478,4.57c-0.063,0.382-0.008,0.685,0.328,0.902c0.531,0.343,1.035,0.743,1.601,1.013
		C15.929,26.807,17.868,26.973,19.841,27.083z M22.64,14.136c-0.013-0.001-0.026-0.002-0.039-0.002c0-0.404,0.006-0.808-0.001-1.212
		c-0.025-1.537-1.181-2.617-2.793-2.614c-1.614,0.003-2.761,1.079-2.783,2.624c-0.01,0.721,0.005,1.443-0.004,2.164
		c-0.014,1.035,0.326,1.85,1.24,2.448c1.409,0.921,3.861,0.334,4.244-1.559C22.626,15.384,22.599,14.753,22.64,14.136z"/>
	<path fill="#606161" d="M6.745,9.941C6.054,9.053,5.893,7.988,5.949,6.862c0.035-0.691-0.028-1.395,0.078-2.074
		c0.321-2.049,2.325-3.62,4.335-3.461c2.153,0.17,3.878,2.015,3.884,4.154C14.248,5.9,14.231,6.32,14.25,6.739
		c0.054,1.165-0.067,2.283-0.839,3.255c0.615,0.284,1.195,0.552,1.816,0.838c-0.246,0.414-0.462,0.778-0.668,1.124
		c-0.642-0.253-1.243-0.491-1.844-0.726c-0.308-0.121-0.587-0.106-0.902,0.051c-1.162,0.578-2.336,0.539-3.504-0.017
		c-0.147-0.07-0.337-0.15-0.479-0.113c-2.167,0.557-3.923,1.666-4.907,3.763c-0.158,0.337-0.238,0.71-0.36,1.064
		c-0.247,0.717-0.016,1.219,0.608,1.647c1.283,0.881,2.708,1.366,4.229,1.539c1.301,0.148,2.615,0.179,3.971,0.265
		c0.029,0.354,0.062,0.763,0.105,1.285c-0.427,0-0.811,0.001-1.194,0c-2.241-0.009-4.439-0.255-6.507-1.197
		c-0.862-0.393-1.628-0.92-2.275-1.626C1.144,17.5,1.054,17.08,1.116,16.577c0.274-2.214,1.387-3.93,3.166-5.208
		C5.038,10.827,5.895,10.428,6.745,9.941z M7.273,6.483c0.013,0.001,0.025,0.002,0.038,0.002c0,0.433-0.009,0.866,0.002,1.298
		c0.037,1.483,1.195,2.549,2.765,2.554c1.606,0.005,2.776-1.051,2.808-2.553c0.018-0.851,0.017-1.702,0-2.553
		c-0.027-1.354-1.045-2.415-2.417-2.545C8.933,2.542,7.685,3.323,7.404,4.679C7.283,5.264,7.312,5.881,7.273,6.483z"/>
</g>
</svg>
